<svg width="67" height="56" viewBox="0 0 67 56" fill="none" xmlns="http://www.w3.org/2000/svg">
  <path fill-rule="evenodd" clip-rule="evenodd" d="M38.8162 1.03507C35.6815 1.26063 32.6514 1.9438 29.7974 3.0684C28.1752 3.70763 25.8019 4.96381 24.2087 6.02646C19.4295 9.21432 16.4382 13.6498 15.3085 19.2238C15.1022 20.2414 15.439 20.1925 15.1389 20.5259C15.1389 20.5259 13.6774 32.1439 15.8405 37.9759C18.3537 44.7518 27.5706 51.1226 27.5706 51.1226C27.6894 51.161 28.5451 51.524 29.4721 51.9294C32.101 53.0788 32.9092 53.3674 34.3807 53.6819C40.2116 54.9278 45.6861 54.406 51.7089 52.0304C55.6206 50.4876 58.2348 48.6243 59.9979 46.1225C60.6581 45.1858 61.944 42.849 62.7623 41.099C66.2214 33.7017 67.0005 26.5796 65.0962 19.7621C64.6048 18.0026 64.0041 16.4474 63.096 14.5833C61.5922 11.4961 59.9856 9.18869 57.9085 7.13269C56.3589 5.59879 54.762 4.43698 52.9206 3.5038C50.28 2.16564 47.7901 1.50444 43.9391 1.11888C42.8597 1.01074 39.8401 0.961364 38.8162 1.03507Z" fill="#D56179"/>
  <path fill-rule="evenodd" clip-rule="evenodd" d="M50.5554 2.34656L51.6315 4.25407C51.6959 4.31892 52.1198 6.08451 52.3426 7.2162C52.5155 8.09421 52.4551 9.66148 52.165 11.8211L52.0961 12.3339L51.9615 13.3301L51.9209 13.6101C51.8353 14.1999 51.5779 15.4594 51.3808 16.2527C50.568 19.5239 49.3299 22.0269 47.5569 23.9831L47.2417 24.3309L46.9822 24.5961L46.4047 25.0953C45.7573 25.655 45.0988 26.1588 44.4336 26.6033C43.883 26.9712 42.2459 27.9174 42.1599 27.9174L41.7836 28.1441L41.0259 28.511C39.6039 29.1998 36.9028 30.3997 36.7823 30.3962L36.0302 30.7225C35.9627 30.7899 34.6527 31.3062 34.2951 31.4063C33.6898 31.5758 32.9698 31.611 32.435 31.4972C32.1926 31.4456 31.9637 31.3699 31.9263 31.3289C31.9263 31.3289 25.0672 30.5733 21.952 28.511C18.8367 26.4488 15.9723 20.7674 15.9723 20.7674L15.9705 20.7627L15.3707 19.1172C15.1645 20.1348 15.0768 20.3687 14.7767 20.702C14.7767 20.702 13.3699 32.7139 16.5415 39.2718C19.2881 44.951 27.6329 51.016 27.6329 51.016C27.7517 51.0544 28.6074 51.4174 29.5344 51.8228C32.1633 52.9722 32.9715 53.2608 34.443 53.5753C40.2739 54.8212 45.7483 54.2994 51.7712 51.9238C55.6829 50.381 58.2971 48.5177 60.0603 46.0159C60.7204 45.0791 62.0064 42.7424 62.8246 40.9924C66.2837 33.5951 67.0628 26.473 65.1586 19.6555C64.6671 17.896 64.0664 16.3408 63.1583 14.4767C61.6545 11.3895 60.0479 9.08208 57.9708 7.02608C56.4212 5.49218 54.8243 4.33038 52.9829 3.3972C52.1741 2.98731 51.3794 2.64095 50.5554 2.34656Z" fill="#A84759"/>
  <path d="M36.9439 1.21503C30.9738 2.14649 25.1019 4.99942 21.2436 8.84312C18.2456 11.83 16.9119 13.2604 15.829 17.1593L15.2226 19.5861C15.8724 17.1528 18.0968 12.7599 18.5631 12.7599C18.6558 12.7599 19.5064 14.6911 20.4532 17.0516C21.3999 19.4122 22.1746 21.6421 22.1746 21.6421L22.5465 21.8725L21.1714 17.7753C20.1054 15.3245 19.2219 13.0393 19.2084 12.6969C19.1837 12.0795 22.7336 7.91054 23.2836 7.91054C23.4414 7.91054 24.0423 9.21167 24.6192 10.8015C27.505 18.7556 31.7205 25.8734 36.4107 30.7123C38.1502 32.507 38.4698 32.7584 37.3305 31.4357C33.5361 27.0317 29.4826 20.3052 25.8744 12.4253C24.2393 8.85393 23.825 7.61436 24.1406 7.23499C24.7942 6.44939 27.4695 5.20608 27.7694 5.54889C27.9186 5.71937 28.4316 6.86606 28.9094 8.09706C29.9915 10.8847 32.3946 15.7412 33.6917 17.7619C35.0318 19.8501 39.1444 25.1609 39.9154 25.7995C40.2612 26.086 39.3796 24.773 37.9561 22.8817C35.1039 19.0925 31.4692 12.8856 29.7346 8.84312C29.6477 8.64049 29.5648 8.4478 29.4859 8.26447L29.4852 8.26287C28.5578 6.10844 28.1875 5.2482 28.464 4.74852C28.6477 4.41638 29.1172 4.24354 29.8988 3.95581C29.9989 3.91893 30.1042 3.88016 30.2147 3.83892C31.363 3.41031 32.8048 3.01789 33.4195 2.96715C34.4933 2.87837 34.5726 2.98021 35.4662 5.60335C37.4154 11.3241 40.898 17.3683 44.4258 21.1531L46.1641 23.0182L44.8685 21.3396C42.8217 18.6874 39.5837 13.5578 38.1576 10.7083C36.8878 8.17092 34.7607 2.68403 34.9704 2.48707C35.1996 2.2722 38.5132 1.64663 39.6222 1.60895C40.7559 1.57053 40.8468 1.6802 41.8283 4.2735C43.506 8.70659 47.8605 16.8633 48.5489 16.8633C48.7227 16.8633 44.0209 7.19433 42.167 3.74007C41.5852 2.65605 41.3751 1.90514 41.6121 1.75891C42.3009 1.3344 45.3441 2.01108 46.3716 2.81757C46.925 3.25178 47.2335 3.3745 47.0577 3.09063C46.4879 2.17111 49.5947 2.8724 52.8585 4.40071C56.3003 6.0122 58.0438 7.70463 58.1205 9.50898C58.1579 10.386 58.2151 10.483 58.3336 9.86895C58.5781 8.60102 59.0216 8.8323 60.7057 11.1063C62.7947 13.9279 64.6908 18.0275 65.3567 21.1639C66.1557 24.9278 66.0727 30.568 65.1619 34.3956C64.1553 38.6262 60.8608 45.3288 58.6959 47.5513C57.0792 49.2109 54.2453 50.9701 53.5633 50.7373C53.3779 50.6743 54.3481 49.2795 55.7196 47.6382L58.2132 44.654L54.8525 47.8572C51.1853 51.3524 48.0953 53.1501 44.6516 53.7913C42.2369 54.2408 40.1221 54.2781 40.1221 53.8708C40.1221 53.7085 41.0988 53.1281 42.2927 52.5816C50.3668 48.8841 56.74 42.3166 59.4306 34.922C60.7479 31.3014 60.5004 31.2503 58.7875 34.7884C55.4515 41.6794 50.7033 47.317 45.856 50.1427C42.6138 52.0325 38.1187 53.7932 36.5352 53.7932C35.0695 53.7932 31.1484 52.7073 31.1484 52.3011C31.1484 52.1709 32.0742 51.7732 33.2052 51.4174C36.4152 50.4079 41.6836 47.6319 44.8771 45.2672C50.4236 41.1602 54.3466 35.818 56.5871 29.3221C57.551 26.5262 57.2908 26.3113 56.2446 29.0389C52.783 38.0633 42.5551 47.8135 33.5612 50.6631C31.395 51.3496 29.25 51.6675 28.6222 51.498L30.5692 52.9057C34.7913 54.6232 37.2718 55.0242 42.3656 54.813C47.1093 54.6165 50.0179 53.8771 54.5904 51.7053C58.3523 49.9185 60.4929 47.6934 62.8347 43.1346C67.556 33.9435 68.2631 25.2542 64.9603 17.0181C61.7122 8.91735 56.1291 3.59832 48.9583 1.77271C46.1473 1.05687 39.8353 0.764042 36.9439 1.21503Z" fill="#421643"/>
  <path fill-rule="evenodd" clip-rule="evenodd" d="M38.8162 1.03507C35.6815 1.26063 32.6514 1.9438 29.7974 3.0684C28.1752 3.70763 25.8019 4.96381 24.2087 6.02646C19.4295 9.21432 16.4382 13.6498 15.3085 19.2238C15.1022 20.2414 15.439 20.1925 15.1389 20.5259C15.1389 20.5259 13.6774 32.1439 15.8405 37.9759C18.3537 44.7518 27.5706 51.1226 27.5706 51.1226C27.6894 51.161 28.5451 51.524 29.4721 51.9294C32.101 53.0788 32.9092 53.3674 34.3807 53.6819C40.2116 54.9278 45.6861 54.406 51.7089 52.0304C55.6206 50.4876 58.2348 48.6243 59.9979 46.1225C60.6581 45.1858 61.944 42.849 62.7623 41.099C66.2214 33.7017 67.0005 26.5796 65.0962 19.7621C64.6048 18.0026 64.0041 16.4474 63.096 14.5833C61.5922 11.4961 59.9856 9.18869 57.9085 7.13269C56.3589 5.59879 54.762 4.43698 52.9206 3.5038C50.28 2.16564 47.7901 1.50444 43.9391 1.11888C42.8597 1.01074 39.8401 0.961364 38.8162 1.03507Z" stroke="#421643"/>
  <path fill-rule="evenodd" clip-rule="evenodd" d="M16.9712 21.1992C16.323 21.1992 15.2051 21.6025 13.856 21.9339C11.086 22.6145 9.00503 23.5621 7.0131 25.05C6.1923 25.6631 4.69613 27.1681 4.08534 27.9948C2.43009 30.2355 1.51562 32.5456 1.10437 35.5252C1.024 36.1075 0.998801 36.6712 1.00004 37.8581C1.00176 39.5442 1.07911 40.4061 1.34743 41.7295C2.78085 48.7995 8.77683 54.0004 16.6651 55.016C20.6846 55.5335 23.9919 54.5931 27.7447 51.8657C28.4128 51.3801 28.6318 51.4782 28.6318 51.4478C28.6318 51.4478 32.5768 46.2534 33.434 42.1513C34.2683 38.1584 32.9252 31.7607 32.9252 31.7607C32.8879 31.7197 32.7693 31.4603 32.6617 31.1842C32.2318 30.0805 31.4434 28.6158 30.7266 27.589C29.2803 25.5174 27.531 23.989 25.3799 22.9175C24.3961 22.4275 23.4259 21.9549 22.9509 21.8233C21.8725 21.5244 16.9956 21.228 16.9712 21.1992Z" fill="#8184C4"/>
  <path fill-rule="evenodd" clip-rule="evenodd" d="M29.0737 25.239L29.3538 27.5082L29.1932 28.2304C28.2478 32.4829 26.2772 35.7657 23.1673 38.269C22.8466 38.5271 22.5787 38.73 22.5719 38.7199L21.791 39.2318C21.7547 39.3264 20.7451 39.9263 19.8766 40.3694C19.1466 40.7419 17.8187 41.3178 16.9251 41.6497L16.3741 41.8542L15.5616 42.1387L14.6587 42.3802C12.7462 42.8918 11.5779 43.0586 9.85248 43.0664C9.16942 43.0695 8.46105 43.0507 8.27836 43.0246L7.94612 42.9771L7.197 42.8719L6.95754 42.832C6.32393 42.7262 4.11726 42.0301 3.97952 41.8926L3.07535 41.4081C3.00974 41.4169 2.88875 41.3663 2.6878 41.2536L2.34177 41.0596L1 39.961C1.05217 40.3689 1.123 40.7779 1.21753 41.2441C2.65096 48.3142 8.64692 53.5151 16.5352 54.5306C20.5546 55.0481 23.8619 54.1078 27.6148 51.3803C28.2829 50.8948 28.2869 50.8929 28.5019 50.9624C28.5019 50.9624 32.4971 45.9266 33.4834 42.1387C34.5922 37.8801 32.7953 31.2754 32.7953 31.2754C32.7579 31.2344 32.6394 30.9749 32.5318 30.6988C32.1018 29.5952 31.3135 28.1304 30.5966 27.1036C30.1227 26.4248 29.6162 25.8042 29.0737 25.239Z" fill="#765E8B"/>
  <path fill-rule="evenodd" clip-rule="evenodd" d="M17.3434 21.1992C16.5334 21.3311 11.6053 22.7004 10.185 23.3567C-2.18371 29.0715 -2.02518 46.8338 10.447 52.7368C13.6961 54.2745 17.9377 55.1175 20.8125 54.7971C23.0065 54.5522 27.7305 52.5917 28.6233 51.5554C28.6233 51.4491 30.7789 49.0176 31.9721 46.7849C34.105 42.7937 33.8464 42.1982 33.992 38.7052C34.2783 31.8367 28.987 24.6276 23.721 21.6721C23.721 21.9425 17.6476 21.4923 17.3434 21.1992ZM32.6476 31.4789C30.5746 26.6447 26.2647 23.3103 21.0321 22.4921C18.2931 22.0638 17.8733 22.0649 15.1195 22.5082C12.0877 22.9956 9.31799 24.3568 6.81565 26.5892C4.66755 28.5054 2.14132 32.1315 2.62791 32.6003C2.74927 32.7173 4.20523 31.564 5.86296 30.038C8.42408 27.6803 11.2594 25.7608 12.1803 25.7608C12.316 25.7608 11.3413 26.5296 10.0147 27.4695C6.8809 29.689 3.83167 32.7111 2.77923 34.6405C1.8144 36.4091 1.64715 40.1868 2.45269 42.022L2.93397 43.1182L3.94924 40.3776C5.52391 36.127 8.20412 32.8609 11.3053 31.4138C12.4833 30.8642 12.4719 30.8898 11.0209 32.0463C6.80163 35.41 4.17793 39.5499 3.76113 43.503C3.54874 45.5179 3.61398 45.8103 4.49688 46.7918L5.4655 47.8687L6.79366 45.128C8.27238 42.0771 8.52686 42.0771 7.41298 45.128C6.39696 47.9107 6.44929 48.9394 7.65381 49.8518C8.20335 50.2684 8.93419 50.6093 9.27742 50.6093C10.1986 50.6093 14.0295 46.7125 15.3846 44.3972C16.0316 43.2918 16.4435 42.7985 16.2997 43.3009C15.7483 45.23 14.4289 47.2091 12.2098 49.4356C9.73708 51.9168 9.74125 51.7988 12.0839 53.02C13.9104 53.9716 14.9795 53.5663 16.9987 51.1575C19.0566 48.7022 21.5881 44.0563 22.375 41.2908C22.6606 40.2862 22.9098 39.8042 22.9288 40.2197C23.0277 42.4301 20.3642 48.2747 17.7018 51.6877C15.9095 53.9858 16.0521 54.2493 19.0903 54.258C22.7338 54.2679 25.0355 52.3805 27.4264 47.4214C28.3043 45.6002 28.467 44.7093 28.6131 40.9257C28.7439 37.5225 28.8474 36.8681 29.0739 38.0023C29.8301 41.7848 29.188 45.9685 27.3016 49.5555C26.7646 50.5772 26.3955 51.4809 26.4816 51.5638C26.7665 51.8382 29.5077 49.5288 30.6068 48.0887C31.2007 47.3111 32.1432 45.5457 32.7018 44.1655C33.5722 42.0146 33.7175 41.1088 33.7194 37.8196C33.7209 34.4377 33.5938 33.6856 32.6476 31.4789Z" fill="#421643"/>
  <path fill-rule="evenodd" clip-rule="evenodd" d="M16.9712 21.1992C16.323 21.1992 15.2051 21.6025 13.856 21.9339C11.086 22.6145 9.00503 23.5621 7.0131 25.05C6.1923 25.6631 4.69613 27.1681 4.08534 27.9948C2.43009 30.2355 1.51562 32.5456 1.10437 35.5252C1.024 36.1075 0.998801 36.6712 1.00004 37.8581C1.00176 39.5442 1.07911 40.4061 1.34743 41.7295C2.78085 48.7995 8.77683 54.0004 16.6651 55.016C20.6846 55.5335 23.9919 54.5931 27.7447 51.8657C28.4128 51.3801 28.6318 51.4782 28.6318 51.4478C28.6318 51.4478 32.5768 46.2534 33.434 42.1513C34.2683 38.1584 32.9252 31.7607 32.9252 31.7607C32.8879 31.7197 32.7693 31.4603 32.6617 31.1842C32.2318 30.0805 31.4434 28.6158 30.7266 27.589C29.2803 25.5174 27.531 23.989 25.3799 22.9175C24.3961 22.4275 23.4259 21.9549 22.9509 21.8233C21.8725 21.5244 16.9956 21.228 16.9712 21.1992Z" stroke="#421643"/>
</svg>
