<svg width="66" height="66" viewBox="0 0 66 66" fill="none" xmlns="http://www.w3.org/2000/svg">
  <path fill-rule="evenodd" clip-rule="evenodd" d="M38.4423 7.77567C49.7384 9.2989 58.3383 17.6677 60.1152 28.8656C60.4966 31.2696 60.3821 36.4082 59.8978 38.6094C59.0789 42.3327 57.4498 46.114 55.305 49.2687C54.0255 51.1509 50.8999 54.4231 49.2173 55.6419C43.6901 59.6456 37.2059 61.1577 30.8527 59.9244C25.7871 58.9411 19.0131 56.0398 15.4087 53.3097C10.4745 49.5728 7.19299 41.4054 7.57281 33.8079C8.00073 25.248 11.699 17.9506 18.0136 13.2062C23.8432 8.82605 31.3782 6.82286 38.4423 7.77567Z" fill="#EFE2DA"/>
  <path fill-rule="evenodd" clip-rule="evenodd" d="M38.6242 0.29103C52.7442 2.19507 63.4942 12.6561 65.7153 26.6535C66.192 29.6585 66.0489 36.0817 65.4436 38.8332C64.4199 43.4873 62.3835 48.2139 59.7025 52.1574C58.1031 54.5101 54.1962 58.6003 52.0929 60.1238C45.184 65.1284 37.0787 67.0185 29.1372 65.477C22.8052 64.2478 14.3377 60.6212 9.83218 57.2086C3.66447 52.5374 -0.437476 42.3282 0.0372965 32.8313C0.572197 22.1314 5.1951 13.0097 13.0882 7.07916C20.3753 1.604 29.794 -0.899984 38.6242 0.29103ZM37.602 8.22597C48.4238 9.70433 56.6627 17.8267 58.365 28.6947C58.7303 31.028 58.6207 36.0152 58.1567 38.1516C57.3722 41.7652 55.8115 45.4351 53.7567 48.4969C52.5309 50.3237 49.5366 53.4995 47.9246 54.6824C42.6295 58.5681 36.4175 60.0357 30.3311 58.8388C25.4782 57.8844 18.9886 55.0686 15.5355 52.4189C10.8085 48.792 7.66471 40.8652 8.02858 33.4915C8.43854 25.1837 11.9816 18.1012 18.031 13.4965C23.6159 9.24541 30.8345 7.30122 37.602 8.22597Z" fill="#4F564A"/>
  <path fill-rule="evenodd" clip-rule="evenodd" d="M15.1104 9.98532C17.8892 7.98035 22.9442 6.10138 27.1494 5.51033C27.7928 5.41999 29.6877 5.37658 31.3605 5.41419C34.8257 5.4917 36.6499 5.80946 39.8767 6.89771C43.3539 8.0705 45.5536 9.13249 47.6389 10.7771L40.498 8.22921C40.8863 8.35908 41.5611 8.59426 41.9391 8.74338C40.4785 7.36351 37.6968 7.5477 35.7837 7.28635C29.4029 6.41444 22.6923 9.00357 17.4266 13.0118C11.7229 17.3534 7.88452 23.9676 7.49799 31.8006C7.46127 32.5448 7.46115 33.3585 7.49799 34.109L6.68114 36.0165L6.19294 36.4894L5.70474 36.9623L5.28467 36.3905L5.25898 36.3555C4.41206 35.2023 4.03319 34.6864 3.86371 34.109C3.72653 33.6417 3.72654 33.1341 3.72656 32.2156L3.72656 32.1817C3.72656 28.7674 4.69723 25.148 6.75744 20.8797C7.79953 18.7205 9.6086 15.7591 10.8372 14.2011C11.8374 12.9325 14.0474 10.7523 15.1104 9.98532Z" fill="#3B4138"/>
  <path d="M56.3131 34.4863L58.3056 39.3434L59.3552 35.572V30.8577L58.3056 22.8291L54.3207 16.0291L50.3358 13.1148L45.3546 9.22911L35.3924 7.28625H29.415L23.4377 9.22911L18.4565 12.1434L13.4754 16.0291L10.4867 20.8863L8.49427 25.7434L7.49805 33.5148V34.6291C7.49805 34.6291 9.29341 30.191 10.4867 27.6863C11.8968 24.7266 13.1178 23.2097 15.4679 20.8863C17.2171 19.1568 18.3118 18.2485 20.449 17.0005C23.3008 15.3353 25.1134 14.4288 28.4188 14.0863C32.3641 13.6774 34.6397 14.7415 38.3811 16.0291C41.6625 17.1584 43.5474 17.9048 46.3509 19.9148C52.0015 23.9663 56.3131 34.4863 56.3131 34.4863Z" fill="#C7B2B6"/>
  <path d="M32.4864 42.0445L35.1692 33.1667C35.2508 32.8968 35.5392 32.7477 35.8066 32.8372L50.8732 37.8819L57.3636 39.5363C57.6176 39.601 57.8785 39.4586 57.9614 39.2099L58.2647 38.3C58.3041 38.1818 58.298 38.0531 58.2474 37.9392L56.3543 33.6703C56.302 33.5523 56.2066 33.4594 56.0867 33.4115C54.2836 32.691 39.8469 27.0586 33.6065 28.8639C33.5165 28.89 33.4402 28.9416 33.3796 29.0131C30.2099 32.7555 27.8416 38.0497 27.5326 38.7561C27.5092 38.8097 27.4968 38.8649 27.4937 38.9234L27.2242 43.9712C27.2038 44.3523 27.6006 44.6148 27.9434 44.4469L32.2276 42.3489C32.3524 42.2878 32.4462 42.1775 32.4864 42.0445Z" fill="#C7B2B6"/>
  <path d="M52.7652 35.6285C51.8621 35.1674 47.7226 33.6779 42.8352 32.0553C34.1285 29.165 33.4527 28.9642 33.0664 29.1534C32.582 29.3906 29.7472 38.3101 29.4184 40.6318C29.0786 43.0309 29.7434 43.9609 30.6483 42.3525C31.1557 41.4508 31.5149 40.362 32.2159 37.6009C32.4936 36.507 33.0313 34.6326 33.4107 33.4357L34.1004 31.2595L36.5697 31.9855C37.9279 32.3847 41.1351 33.4702 43.6968 34.3977C51.4656 37.2102 53.7978 37.8814 54.356 37.4651C54.9039 37.0565 54.3819 36.4538 52.7652 35.6285Z" fill="#421643"/>
  <path d="M59.3529 28.54L59.353 28.54C59.5494 29.7943 59.6118 31.694 59.5716 33.519C59.5315 35.3396 59.3869 37.1986 59.1339 38.3637C59.1339 38.3637 59.1339 38.3638 59.1339 38.3638L58.1567 38.1516C57.3722 41.7652 55.8114 45.4351 53.7567 48.4969L59.3529 28.54ZM59.3529 28.54C57.583 17.2399 49.0012 8.77392 37.7374 7.23517M59.3529 28.54L37.7374 7.23517M37.7374 7.23517C30.6987 6.27337 23.215 8.29383 17.4253 12.7008C11.1173 17.5024 7.45274 24.8711 7.0298 33.4422C6.84036 37.2811 7.56298 41.2484 8.9434 44.7289C10.3205 48.2011 12.3809 51.2589 14.9268 53.2122L37.7374 7.23517ZM38.4905 1.28206L38.4906 1.28206C52.1762 3.12752 62.5763 13.2522 64.7277 26.8102C64.952 28.2239 65.0369 30.5105 64.9855 32.8161C64.934 35.1261 64.748 37.3406 64.4669 38.6183L64.4669 38.6184C63.4706 43.1482 61.485 47.7569 58.8755 51.5951L58.8755 51.5952C58.1212 52.7047 56.7881 54.2694 55.3636 55.7608C53.9359 57.2555 52.4832 58.6063 51.5063 59.3139C44.8077 64.1662 36.9813 65.981 29.3277 64.4953C23.1245 63.2911 14.8035 59.7196 10.436 56.4114L10.4359 56.4114C4.59373 51.9868 0.573496 42.1337 1.03605 32.8812C1.55756 22.4492 6.05522 13.6143 13.6889 7.87864C20.7713 2.55728 29.9274 0.127067 38.4905 1.28206Z" stroke="#421643" stroke-width="2"/>
</svg>
