<svg width="214" height="230" viewBox="0 0 214 230" fill="none" xmlns="http://www.w3.org/2000/svg">
  <path d="M207.118 35.6383C204.55 33.0519 202.152 31.8198 198.633 31.2784C196.889 31.0099 193.173 30.9046 191.079 31.0643C187.522 31.3355 186.031 31.5979 183.858 32.3347C182.713 32.7231 181.699 33.1028 181.605 33.1785C181.411 33.3353 180.209 36.9325 179.76 38.7029C179.325 40.4148 178.823 42.7296 178.886 42.7296C178.916 42.7296 179.416 42.3154 179.996 41.809C182.066 40.0042 185.012 38.3442 187.816 37.404C191.736 36.0892 195.276 35.924 198.674 36.8972C201.899 37.8211 203.935 39.4 205.3 42.0354C207.509 46.3022 206.934 51.4142 203.868 54.7655C202.545 56.2112 200.96 57.1524 198.23 58.1131C197.581 58.3415 195.269 59.2288 193.092 60.0848C186.099 62.835 180.092 64.7093 175.691 65.5135L173.934 65.8348L173.704 66.5362C173.361 67.5815 171.773 71.4937 171.365 72.2984C171.17 72.6843 171.036 73 171.069 73C171.102 73 171.681 72.7899 172.356 72.5332C173.031 72.2764 174.583 71.7759 175.805 71.4207C177.027 71.0655 180.307 70.0278 183.095 69.1144C185.882 68.2012 188.913 67.2324 189.829 66.9615C193.406 65.9043 200.233 63.0761 202.934 61.5324C204.55 60.609 206.471 59.2509 207.363 58.4018C208.125 57.6756 209.221 55.8837 209.775 54.4548C210.254 53.221 210.552 51.0533 210.675 47.9099C210.781 45.1792 210.614 43.422 210.026 41.0674C209.426 38.6713 208.604 37.1352 207.118 35.6383Z" fill="#E2A888"/>
  <path d="M173.934 65.8348L175.691 65.5135C180.092 64.7093 186.099 62.835 193.092 60.0848C195.269 59.2288 197.581 58.3415 198.23 58.1131C200.96 57.1524 202.545 56.2112 203.868 54.7655C206.934 51.4142 207.509 46.3022 205.3 42.0354C203.935 39.4 201.899 37.8211 198.674 36.8972C195.276 35.924 191.736 36.0892 187.816 37.404C185.012 38.3442 182.066 40.0042 179.996 41.809C179.416 42.3154 178.916 42.7296 178.886 42.7296L178.466 44.7598C178.549 44.4776 183.361 42.0722 186.004 40.9916C187.788 40.2623 190.629 39.3226 191.846 39.0586C193.076 38.792 195.846 38.7916 196.98 39.0578C198.553 39.4271 200.076 40.2662 201.206 41.3862C203.617 43.7747 204.501 46.7021 203.645 49.4641C203.175 50.9812 202.036 53.2036 201.477 53.6943C200.074 54.9265 189.713 59.1148 182.008 61.5642C178.959 62.5336 177.146 63.1864 174.637 64.2184C174.566 64.2474 174.522 64.2486 174.503 64.2184L173.934 65.8348Z" fill="#3B0F26"/>
  <path d="M170.32 74.4315L172.09 74.3452C175.573 74.1757 179.982 73.135 184.575 71.398C185.097 71.2006 186.212 70.8529 187.052 70.6253C193.257 68.9446 197.575 67.405 200.579 65.8018C206.745 62.5108 209.146 60.4854 211.397 56.6766C213.018 53.9341 213.686 50.4761 213.392 46.3589C213.053 41.6301 212.029 38.5396 209.808 35.5518C207.525 32.4794 204.915 30.7104 200.868 29.4911C198.093 28.655 196.732 28.4969 192.328 28.4985C188.715 28.4999 188.359 28.5224 187.284 28.8167C185.865 29.2053 184.237 29.8396 183.27 30.3811C182.87 30.605 182.506 30.7881 182.46 30.7881L181.605 33.1785C181.699 33.1028 182.713 32.7231 183.858 32.3347C186.031 31.5979 187.522 31.3355 191.079 31.0643C193.173 30.9046 196.889 31.0099 198.633 31.2784C202.152 31.8198 204.55 33.0519 207.118 35.6383C208.604 37.1352 209.426 38.6713 210.026 41.0674C210.614 43.422 210.781 45.1792 210.675 47.9099C210.552 51.0533 210.254 53.221 209.775 54.4548C209.221 55.8837 208.125 57.6756 207.363 58.4018C206.471 59.2509 204.55 60.609 202.934 61.5324C200.233 63.0761 193.406 65.9043 189.829 66.9615C188.913 67.2324 185.882 68.2012 183.095 69.1144C180.307 70.0278 177.027 71.0655 175.805 71.4207C174.583 71.7759 173.031 72.2764 172.356 72.5332C171.681 72.7899 171.102 73 171.069 73L170.32 74.4315Z" fill="#3B0F26"/>
  <path d="M6.34143 35.6383C8.90913 33.0519 11.3066 31.8198 14.8256 31.2784C16.57 31.0099 20.2865 30.9046 22.3803 31.0643C25.9368 31.3355 27.4284 31.5979 29.6007 32.3347C30.7463 32.7231 31.7602 33.1028 31.8538 33.1785C32.0479 33.3353 33.2496 36.9325 33.6993 38.7029C34.1342 40.4148 34.6364 42.7296 34.573 42.7296C34.543 42.7296 34.0434 42.3154 33.4628 41.809C31.3934 40.0042 28.4467 38.3442 25.6434 37.404C21.7232 36.0892 18.1826 35.924 14.7849 36.8972C11.5596 37.8211 9.52356 39.4 8.15918 42.0354C5.95 46.3022 6.52499 51.4142 9.5909 54.7655C10.9136 56.2112 12.4987 57.1524 15.2292 58.1131C15.8784 58.3415 18.1903 59.2288 20.3669 60.0848C27.3596 62.835 33.3672 64.7093 37.7675 65.5135L39.5248 65.8348L39.7551 66.5362C40.0983 67.5815 41.6862 71.4937 42.0939 72.2984C42.2894 72.6843 42.4226 73 42.3897 73C42.3568 73 41.7776 72.7899 41.1029 72.5332C40.4281 72.2764 38.8762 71.7759 37.6543 71.4207C36.4324 71.0655 33.1519 70.0278 30.3644 69.1144C27.5769 68.2012 24.5464 67.2324 23.63 66.9615C20.0528 65.9043 13.226 63.0761 10.5246 61.5324C8.90899 60.609 6.98766 59.2509 6.09634 58.4018C5.33376 57.6756 4.23847 55.8837 3.68361 54.4548C3.20456 53.221 2.90672 51.0533 2.78424 47.9099C2.67774 45.1792 2.84451 43.422 3.43339 41.0674C4.03255 38.6713 4.8554 37.1352 6.34143 35.6383Z" fill="#E2A888"/>
  <path d="M39.5248 65.8348L37.7675 65.5135C33.3672 64.7093 27.3596 62.835 20.3669 60.0848C18.1903 59.2288 15.8784 58.3415 15.2292 58.1131C12.4987 57.1524 10.9136 56.2112 9.5909 54.7655C6.52499 51.4142 5.95 46.3022 8.15918 42.0354C9.52356 39.4 11.5596 37.8211 14.7849 36.8972C18.1826 35.924 21.7232 36.0892 25.6434 37.404C28.4467 38.3442 31.3934 40.0042 33.4628 41.809C34.0434 42.3154 34.543 42.7296 34.573 42.7296L34.9934 44.7598C34.9103 44.4776 30.0984 42.0722 27.4546 40.9916C25.6707 40.2623 22.8304 39.3226 21.6127 39.0586C20.3827 38.792 17.6127 38.7916 16.4789 39.0578C14.9064 39.4271 13.3835 40.2662 12.2528 41.3862C9.84168 43.7747 8.95773 46.7021 9.81363 49.4641C10.2839 50.9812 11.423 53.2036 11.9818 53.6943C13.3853 54.9265 23.7463 59.1148 31.4507 61.5642C34.4997 62.5336 36.313 63.1864 38.8222 64.2184C38.8928 64.2474 38.9366 64.2486 38.9559 64.2184L39.5248 65.8348Z" fill="#3B0F26"/>
  <path d="M43.1387 74.4315L41.3685 74.3452C37.8855 74.1757 33.4773 73.135 28.884 71.398C28.3617 71.2006 27.2471 70.8529 26.4071 70.6253C20.2018 68.9446 15.8842 67.405 12.8801 65.8018C6.71383 62.5108 4.31262 60.4854 2.06178 56.6766C0.441208 53.9341 -0.227242 50.4761 0.0672684 46.3589C0.405518 41.6301 1.43027 38.5396 3.65098 35.5518C5.93444 32.4794 8.54394 30.7104 12.591 29.4911C15.3662 28.655 16.7274 28.4969 21.1306 28.4985C24.7443 28.4999 25.1 28.5224 26.1748 28.8167C27.5944 29.2053 29.2217 29.8396 30.1888 30.3811C30.5885 30.605 30.953 30.7881 30.9987 30.7881L31.8538 33.1785C31.7602 33.1028 30.7463 32.7231 29.6007 32.3347C27.4284 31.5979 25.9368 31.3355 22.3803 31.0643C20.2865 30.9046 16.57 31.0099 14.8256 31.2784C11.3066 31.8198 8.90913 33.0519 6.34143 35.6383C4.8554 37.1352 4.03255 38.6713 3.43339 41.0674C2.84451 43.422 2.67774 45.1792 2.78424 47.9099C2.90672 51.0533 3.20456 53.221 3.68361 54.4548C4.23847 55.8837 5.33376 57.6756 6.09634 58.4018C6.98766 59.2509 8.90899 60.609 10.5246 61.5324C13.226 63.0761 20.0528 65.9043 23.63 66.9615C24.5464 67.2324 27.5769 68.2012 30.3644 69.1144C33.1519 70.0278 36.4324 71.0655 37.6543 71.4207C38.8762 71.7759 40.4281 72.2764 41.1029 72.5332C41.7776 72.7899 42.3568 73 42.3897 73L43.1387 74.4315Z" fill="#3B0F26"/>
  <path fill-rule="evenodd" clip-rule="evenodd" d="M30.175 6.37026C41.3407 7.5624 57.2573 6.9094 80.8019 6.37026C105.696 5.80039 110.254 5.80857 138.469 7.37609C162.974 8.73703 179.157 8.45329 190.605 6.87318L196.472 7.20845L189.133 16.2838C180.498 28.8724 174.545 47.0709 170.199 74.1732C168.535 84.5407 167.566 92.9729 165.5 115.058C163.358 137.95 162.42 146.001 160.754 155.799C157.866 172.79 153.416 188.653 144.626 213.291L141.732 221.404L115.548 221.738C101.148 221.922 86.5726 222.199 83.1596 222.354L76.954 222.635L74.5023 216.772C66.0537 196.567 60.2796 178.052 55.3483 155.351C51.7401 138.74 49.756 126.698 44.6298 90.2969C39.8278 56.1964 33.5793 32.3656 24.916 15.1113C22.1131 9.52903 19.1448 6.03973 20.452 6.37026C21.0695 6.52646 27.4999 6.08457 30.175 6.37026Z" fill="#E2A888"/>
  <path d="M142.237 85.7989C151.528 91.4856 168.644 96.9929 168.644 96.9929L164.159 134.444L158.96 173.243C158.96 173.243 152.303 204.272 139.527 219.12C135.959 223.266 135.655 225.977 135.655 225.977L88.3952 225.123C88.3952 225.123 73.8778 209.983 74.0982 204.588C74.841 186.404 87.6831 153.43 89.9714 124.026C92.1101 96.5453 119.625 86.9983 128.687 76.637C136.273 69.6223 134.681 81.1748 142.237 85.7989Z" fill="#C48A75"/>
  <path fill-rule="evenodd" clip-rule="evenodd" d="M85.6753 0.178316C83.8304 0.277074 73.9435 0.818235 63.7043 1.38105C53.4652 1.94387 38.6725 2.54093 30.8317 2.70821C22.9909 2.8755 16.3114 3.21663 15.9887 3.46604C15.0626 4.18203 15.293 6.21965 16.5351 8.29154C19.0073 12.4167 24.4091 27.4167 27.7628 39.4691C32.7635 57.4415 35.9692 74.9255 40.5922 109.44C43.7446 132.975 44.7281 139.394 46.8078 150.005C51.9115 176.041 58.9234 198.914 68.7198 221.482C70.0192 224.475 71.4462 227.217 71.891 227.575C72.3904 227.976 73.1928 228.105 73.9884 227.913C74.6969 227.741 75.4278 227.575 75.6123 227.542C75.7968 227.51 78.6436 227.736 81.9389 228.046C85.2339 228.355 92.1724 228.607 97.3572 228.607C102.542 228.607 112.224 228.973 118.872 229.42C126.088 229.904 133.37 230.114 136.941 229.939C142.323 229.675 143.042 229.535 144.117 228.537C145.445 227.304 148.79 219.917 152.206 210.672L154.273 205.082L156.082 199.887C156.003 199.887 156.324 198.741 156.797 197.341C157.781 194.421 161.617 180.225 162.447 176.432L163.003 173.887L164.407 167.347C168.157 147.185 169.134 140.46 171.714 117.002C172.841 106.748 173.847 97.9329 173.949 97.4119L174.965 90.045C174.812 90.045 176.025 81.645 177.076 75.4329C178.162 69.0086 181.065 55.9556 181.534 55.3867L183.6 46.7127C183.489 46.7127 184.329 44.0507 185.467 40.7968C189.05 30.5512 193.836 20.284 198.566 12.7019C202.597 6.23879 202.86 5.40037 201.249 4.14927C200.466 3.5401 198.949 3.37988 193.954 3.37887C185.811 3.37685 168.978 2.60694 148.737 1.3105C133.69 0.346611 95.3704 -0.341167 85.6753 0.178316ZM80.4761 6.70554C56.9316 7.24467 40.6701 7.73004 29.5045 6.5379C26.8294 6.25221 22.243 6.6941 21.6255 6.5379C20.3183 6.20737 22.1131 9.52903 24.916 15.1113C33.5793 32.3656 39.8278 56.1964 44.6298 90.2969C49.756 126.698 51.7401 138.74 55.3483 155.351C60.2796 178.052 66.0537 196.567 74.5023 216.772L76.954 222.635L83.1596 222.354C86.5726 222.199 101.148 221.922 115.548 221.738L141.732 221.404L144.626 213.291C153.416 188.653 157.866 172.79 160.754 155.799C162.42 146.001 163.358 137.95 165.5 115.058C167.566 92.9729 168.535 84.5407 170.199 74.1732C174.545 47.0709 180.498 28.8724 189.133 16.2838L195.969 7.46083H189.251C177.803 9.04094 161.993 9.13719 137.488 7.77625C109.272 6.20873 105.37 6.13567 80.4761 6.70554Z" fill="#3B0F26"/>
</svg>
