<svg width="72" height="147" viewBox="0 0 72 147" fill="none" xmlns="http://www.w3.org/2000/svg">
  <path d="M21.7698 72.5173L21.8782 73.8239C22.1141 76.6692 24.7259 80.2217 27.595 81.6003C28.9073 82.2309 28.9967 82.3289 29.1368 83.2938C29.4027 85.1278 29.7863 86.1097 31.5438 87.1192L31.1391 90.4738C30.3976 96.619 30.1877 100.74 30.1824 109.239C30.1756 119.911 30.7278 127.424 31.9592 133.418C32.2152 134.664 32.4247 135.775 32.4247 135.886C32.4247 135.997 29.0925 136.089 25.0201 136.09C20.6828 136.091 17.2457 136.194 16.7224 136.339C15.621 136.645 14.4565 137.772 14.2446 138.736L14.0857 139.46H12.2544C8.96553 139.46 7.56215 140.633 7.52266 143.416L7.50195 144.878L35.7629 144.939L64.0238 145L63.9316 143.368C63.7688 140.488 62.5253 139.46 59.2074 139.46H57.2872L57.1396 138.722C56.9427 137.736 55.8408 136.676 54.6796 136.353C54.0933 136.19 50.9186 136.091 46.3027 136.09L38.8702 136.088L39.0197 135.547C39.3845 134.225 40.1575 129.434 40.4838 126.47C41.6637 115.756 41.5561 100.706 40.2239 90.1169C39.9647 88.0563 39.8933 87.4085 40.0313 87.1192L40.2844 86.8709C41.5488 85.6144 42.0526 84.4976 42.0552 82.9442C42.0567 82.237 42.18 82.1151 43.5617 81.4548C46.9719 79.8254 48.6324 77.5457 49.0177 73.9641L49.1603 72.6377L21.7698 72.5173Z" fill="#714335"/>
  <path d="M63.3577 140.81L62.1634 139.941L60.237 139.46H39.0466C39.0466 139.46 40.6627 141.156 41.0934 141.868C42.0329 143.42 39.8057 143.103 37.4314 142.766C36.2856 142.603 35.1056 142.435 34.2306 142.47C31.0676 142.596 28.5705 142.175 26.1074 141.759C23.3962 141.301 20.7261 140.851 17.2542 141.145C16.5372 141.206 15.892 141.219 15.284 141.231C13.7232 141.262 12.4077 141.288 10.7527 142.109C10.5053 142.231 10.2638 142.343 10.03 142.452C8.96507 142.947 8.06095 143.367 7.50608 144.346L7.50195 144.637L64.0238 144.759L63.9559 143.557L63.5322 141.156C63.4796 141.034 63.4215 140.919 63.3577 140.81Z" fill="#6B3A33"/>
  <path d="M40.0506 89.3735L31.341 90.3755C31.341 90.3755 34.7729 90.9188 36.157 92.4223C37.4711 93.8499 37.3408 95.3696 37.1931 97.0915C37.1242 97.8953 37.0515 98.7432 37.1201 99.6463C37.3847 103.126 37.2962 105.222 37.1588 108.475C37.1463 108.773 37.1333 109.08 37.1201 109.399C37.0062 112.162 36.7942 114.135 36.5582 116.332C36.4276 117.547 36.2897 118.831 36.157 120.355C36.04 121.697 36.0417 122.851 36.0432 123.942C36.0461 125.948 36.0486 127.743 35.3142 130.107C34.5903 132.438 32.3042 136.209 32.3042 136.209L38.8057 136.329L38.8992 135.224C39.264 133.903 40.037 129.111 40.3632 126.148C41.5432 115.434 41.4355 100.384 40.1034 89.7947C40.0849 89.6472 40.0673 89.5069 40.0506 89.3735Z" fill="#6B3A33"/>
  <path d="M31.341 90.3755L40.0506 89.3735V87.2063L40.7321 86.4839L41.6953 85.0391L42.0565 83.7147L42.1769 82.6311L42.6585 82.0291L43.9829 81.3067L45.7889 80.2231L46.9929 79.0191L48.1969 77.4539L48.7989 75.5275L49.0397 73.7215L49.1601 72.6379H21.709V73.3603L22.311 75.8887L23.515 77.8151L25.2006 79.8619L27.729 81.5475L28.8126 82.2699L29.0534 82.7515L29.2942 84.4371L30.137 85.7615L30.9798 86.7247L31.5818 87.2063L31.1002 90.2163L31.341 90.3755Z" fill="#6B3A33"/>
  <path d="M38.6661 136.088C38.7642 136.249 39.0066 136.663 39.1434 137.051C39.5193 138.118 37.8428 139.459 37.8428 139.459H57.2873L57.1279 138.721C56.9151 137.736 55.7247 136.675 54.4704 136.353C53.837 136.19 50.4075 136.09 45.4211 136.09L38.6661 136.088Z" fill="#6B3A33"/>
  <path d="M31.5438 87.1192C29.7863 86.1097 29.4027 85.1278 29.1368 83.2938C29.0852 82.9384 29.0405 82.7006 28.939 82.5105M31.5438 87.1192L31.1391 90.4738C30.3976 96.619 30.1877 100.74 30.1824 109.239C30.1756 119.911 30.7278 127.424 31.9592 133.418C32.2152 134.664 32.4247 135.775 32.4247 135.886C32.4247 135.911 32.2601 135.934 31.9592 135.957M31.5438 87.1192C31.5438 87.1192 34.1334 87.3268 35.7959 87.3265C37.4519 87.3262 40.0313 87.1192 40.0313 87.1192M14.0857 139.46L14.2446 138.736C14.4565 137.772 15.621 136.645 16.7224 136.339C17.2457 136.194 20.6828 136.091 25.0201 136.09C28.1873 136.089 30.9067 136.034 31.9592 135.957M14.0857 139.46H12.2544C8.96553 139.46 7.56215 140.633 7.52266 143.416L7.50195 144.878L35.7629 144.939L64.0238 145L63.9316 143.368C63.7688 140.488 62.5253 139.46 59.2074 139.46H57.2872M14.0857 139.46H57.2872M57.2872 139.46L57.1396 138.722C56.9427 137.736 55.8408 136.676 54.6796 136.353C54.0933 136.19 50.9186 136.091 46.3027 136.09L38.8702 136.088M38.8702 136.088L39.0197 135.547C39.3845 134.225 40.1575 129.434 40.4838 126.47C41.6637 115.756 41.5561 100.706 40.224 90.1169C39.9647 88.0563 39.8933 87.4085 40.0313 87.1192M38.8702 136.088L31.9592 135.957M40.0313 87.1192L40.2844 86.8709C41.5488 85.6144 42.054 84.7863 42.0567 83.2329C42.0572 82.958 42.076 82.7279 42.1799 82.5105M28.939 82.5105C28.7649 82.1845 28.4239 81.9986 27.595 81.6003C24.7259 80.2217 22.1141 76.6692 21.8782 73.8239L21.7698 72.5173L49.1603 72.6377L49.0177 73.9641C48.6324 77.5457 46.9719 79.8254 43.5617 81.4548C42.7171 81.8584 42.3432 82.1687 42.1799 82.5105M28.939 82.5105C28.939 82.5105 33.038 82.9988 35.6755 82.9921C38.2226 82.9856 42.1799 82.5105 42.1799 82.5105" stroke="#1B092A" stroke-width="2"/>
  <path fill-rule="evenodd" clip-rule="evenodd" d="M57.9929 1.39433C58.1494 1.55446 58.8853 5.7487 59.6284 10.7152C61.3128 21.9747 61.8442 25.16 64.8097 41.7783C68.2476 61.0452 70.1094 71.7668 70.1094 72.2987C70.1094 72.7485 69.7439 72.7678 58.1504 72.9226C40.1875 73.1624 1 73.12 1 72.8607C1 72.7389 1.27162 71.512 1.60368 70.1346C2.71546 65.5204 7.31063 40.1115 11.673 14.4543C13.6622 2.75509 13.9324 1.43334 14.3798 1.21036C15.1424 0.830376 57.6163 1.00977 57.9929 1.39433Z" fill="#AE6173"/>
  <path d="M34.2305 1.24072L38.4798 37.5791C38.6001 38.608 39.0371 39.5741 39.7302 40.344L40.7116 41.434C40.7116 41.434 41.2533 28.4606 43.9624 20.7349C50.2977 2.66781 52.7255 58.2456 53.2429 72.7582C54.9503 72.7425 56.55 72.7249 58.0096 72.7056C69.6031 72.5517 69.9686 72.5326 69.9686 72.0856C69.9686 71.557 68.1068 60.9023 64.6689 41.7559C61.7034 25.2414 61.172 22.076 59.4876 10.8868C58.7445 5.95138 58.0086 1.78334 57.8521 1.62421C57.6523 1.42152 45.6104 1.27619 34.2305 1.24072Z" fill="#874865"/>
  <path fill-rule="evenodd" clip-rule="evenodd" d="M57.9929 1.39433C58.1494 1.55446 58.8853 5.7487 59.6284 10.7152C61.3128 21.9747 61.8442 25.16 64.8097 41.7783C68.2476 61.0452 70.1094 71.7668 70.1094 72.2987C70.1094 72.7485 69.7439 72.7678 58.1504 72.9226C40.1875 73.1624 1 73.12 1 72.8607C1 72.7389 1.27162 71.512 1.60368 70.1346C2.71546 65.5204 7.31063 40.1115 11.673 14.4543C13.6622 2.75509 13.9324 1.43334 14.3798 1.21036C15.1424 0.830376 57.6163 1.00977 57.9929 1.39433Z" stroke="#3B0F26" stroke-width="2"/>
</svg>
