<svg width="329" height="350" viewBox="0 0 329 350" fill="none" xmlns="http://www.w3.org/2000/svg">
  <path d="M307.88 190.865C303.859 190.865 203.546 190.164 175.254 190.164C173.274 190.164 175.78 186.737 176.869 186.494C180.349 185.732 183.982 185.732 187.531 185.328C191.016 184.999 194.433 184.15 197.667 182.808C200.454 181.627 203.242 180.272 206.257 179.799C212.091 178.886 217.209 182.046 222.684 183.44C224.349 183.914 226.094 184.035 227.808 183.795C229.522 183.555 231.167 182.959 232.638 182.046C235.166 180.523 237.466 178.703 240.109 177.362C245.17 174.872 250.689 173.452 256.324 173.19C261.958 172.928 267.586 173.83 272.856 175.839C275.367 176.808 277.769 178.038 280.022 179.51C282.695 181.262 285.003 183.508 287.683 185.237C293.624 189.083 300.965 187.834 307.446 190.035C307.827 190.195 308.23 190.865 307.88 190.865Z" fill="#EBEBEB"/>
  <path d="M111.062 75.1381C105.731 75.1381 16.347 75.7245 10.7267 75.5493C10.323 75.5493 10.1022 74.9401 10.5058 74.7421C14.0471 72.9905 18.0681 73.3408 21.7464 72.0995C23.9093 71.3379 25.242 69.9519 26.7423 68.3297C27.9916 66.9149 29.599 65.8626 31.3954 65.2835C33.0414 64.7919 34.7873 64.7393 36.4598 65.1312C38.2799 65.5577 39.8487 66.601 41.5851 67.2559C45.8803 68.8781 50.0537 67.3321 53.1151 64.1564C55.6511 61.5366 58.1338 59.0615 61.5685 57.6527C62.9745 57.0194 64.4957 56.6819 66.0376 56.6609C67.5795 56.6399 69.1093 56.936 70.532 57.5308C73.8067 59.0159 76.061 62.0012 79.1377 63.7985C82.7932 65.9384 87.1569 65.4282 91.1932 66.0831C95.2294 66.7381 98.3214 70.1194 101.855 72.0766C103.009 72.8199 104.344 73.2333 105.716 73.2723C106.478 73.2723 107.277 73.0362 108.062 72.9448C109.28 72.7925 110.438 72.8229 111.253 73.8434C111.451 74.0871 111.413 75.1381 111.062 75.1381Z" fill="#EBEBEB"/>
  <path d="M297.073 95.9211C293.19 95.9211 227.916 96.3552 223.811 96.2181C223.522 96.2181 223.362 95.7764 223.651 95.6317C226.241 94.3523 229.173 94.6112 231.861 93.7049C233.445 93.1719 234.412 92.1361 235.509 90.9557C236.419 89.9208 237.593 89.1522 238.905 88.732C240.108 88.371 241.384 88.3316 242.607 88.6177C243.884 89.0462 245.133 89.5549 246.346 90.1408C249.476 91.3213 252.53 90.2018 254.761 87.8562C256.612 85.9446 258.424 84.1397 260.937 83.1116C261.963 82.647 263.073 82.3991 264.199 82.3834C265.324 82.3676 266.441 82.5845 267.479 83.0203C269.871 84.1017 271.516 86.2873 273.762 87.5896C276.428 89.1127 279.619 88.7776 282.558 89.2498C285.498 89.722 287.798 92.258 290.349 93.7049C291.191 94.2469 292.166 94.5472 293.167 94.5731C293.742 94.5218 294.314 94.4405 294.88 94.3294C295.292 94.2173 295.727 94.2198 296.138 94.3365C296.548 94.4533 296.919 94.6799 297.211 94.992C297.355 95.1595 297.325 95.9211 297.073 95.9211Z" fill="#EBEBEB"/>
  <path d="M102.822 146.116C98.9382 146.116 33.6648 146.542 29.56 146.413C29.2706 146.413 29.1107 145.971 29.4001 145.826C31.9894 144.547 34.9214 144.806 37.6097 143.899C39.1938 143.366 40.1609 142.331 41.2576 141.143C42.1686 140.11 43.3425 139.345 44.6541 138.926C45.8567 138.565 47.1328 138.526 48.3553 138.812C49.6338 139.237 50.8829 139.746 52.0946 140.335C55.2322 141.516 58.2785 140.389 60.5175 138.051C62.3604 136.139 64.173 134.334 66.6861 133.298C67.712 132.836 68.8221 132.589 69.9475 132.573C71.0729 132.557 72.1895 132.773 73.2279 133.207C75.6192 134.296 77.2642 136.474 79.5108 137.776C82.1762 139.3 85.3672 138.964 88.3068 139.437C91.2464 139.909 93.5159 142.384 96.0976 143.808C96.9391 144.37 97.9194 144.689 98.9306 144.73C99.5094 144.73 100.073 144.554 100.644 144.486C101.055 144.374 101.49 144.375 101.9 144.491C102.31 144.606 102.682 144.831 102.974 145.141C103.104 145.346 103.073 146.116 102.822 146.116Z" fill="#EBEBEB"/>
  <path d="M170.761 119.484C170.685 119.697 67.8818 119.484 69.1765 119.484C69.7705 119.484 68.2778 118.593 68.8566 118.311C72.2075 116.651 75.8706 116.605 79.5185 116.27C81.6724 116.177 83.7868 115.659 85.7404 114.747C87.6824 113.734 88.8857 111.975 90.2641 110.345C92.3801 107.842 95.0981 105.919 98.1623 104.756C101.226 103.593 104.536 103.228 107.78 103.697C115.091 104.839 120.856 110.406 128.175 111.434C132.576 112.051 136.735 110.345 141.037 109.743C144.371 109.286 147.763 109.908 150.717 111.518C153.04 112.668 155.18 113.635 157.799 113.803C159.817 113.947 161.836 113.719 163.854 113.696C167.155 113.757 170.321 115.022 172.756 117.252C173.084 117.557 174.12 119.484 170.761 119.484Z" fill="#EBEBEB"/>
  <path d="M247.58 49.0318C250.773 48.5241 254.027 48.5241 257.221 49.0318C254.027 49.5395 250.773 49.5395 247.58 49.0318Z" fill="#EBEBEB"/>
  <path d="M272.041 34.1661C271.774 31.6799 271.647 29.1805 271.66 26.68C271.639 24.1767 271.766 21.6744 272.041 19.1862C272.316 21.6744 272.443 24.1767 272.422 26.68C272.435 29.1805 272.308 31.6799 272.041 34.1661Z" fill="#EBEBEB"/>
  <path d="M264.623 36.1614C263.582 34.9031 262.654 33.5549 261.851 32.1328C261.022 30.7266 260.316 29.2513 259.742 27.7233C260.783 28.9816 261.711 30.3298 262.514 31.752C263.342 33.1589 264.047 34.6341 264.623 36.1614Z" fill="#EBEBEB"/>
  <path d="M259.193 41.6066C256.907 40.5961 254.68 39.457 252.522 38.1948C250.346 36.9594 248.243 35.599 246.224 34.1204C250.784 36.1672 255.122 38.6757 259.171 41.6066H259.193Z" fill="#EBEBEB"/>
  <path d="M286.914 48.9861C288.507 48.7156 290.12 48.5882 291.735 48.6053C293.35 48.5844 294.964 48.7119 296.556 48.9861C294.963 49.2566 293.35 49.384 291.735 49.3669C290.12 49.3802 288.507 49.2528 286.914 48.9861Z" fill="#EBEBEB"/>
  <path d="M284.911 41.5685C288.962 38.6389 293.3 36.1282 297.858 34.0747C295.856 35.5544 293.768 36.9149 291.606 38.1491C289.442 39.4176 287.207 40.5593 284.911 41.5685Z" fill="#EBEBEB"/>
  <path d="M279.466 36.1386C280.64 33.1105 282.279 30.2841 284.325 27.7614C283.759 29.2854 283.058 30.756 282.231 32.1556C281.43 33.5632 280.505 34.8961 279.466 36.1386Z" fill="#EBEBEB"/>
  <path d="M272.064 63.8898C272.339 66.3755 272.466 68.8753 272.445 71.376C272.466 73.8767 272.339 76.3765 272.064 78.8621C271.556 73.8843 271.556 68.8677 272.064 63.8898Z" fill="#EBEBEB"/>
  <path d="M279.489 61.8869C280.525 63.1499 281.45 64.5004 282.253 65.9232C283.084 67.3286 283.79 68.804 284.363 70.3326C282.301 67.7933 280.656 64.9425 279.489 61.8869Z" fill="#EBEBEB"/>
  <path d="M284.911 56.4418C289.465 58.5009 293.802 61.0087 297.858 63.9279C295.566 62.9237 293.336 61.7844 291.179 60.5161C289.013 59.2799 286.92 57.9195 284.911 56.4418Z" fill="#EBEBEB"/>
  <path d="M259.193 56.4875C257.177 57.9659 255.077 59.3263 252.903 60.5618C250.745 61.8375 248.515 62.9868 246.224 64.0041C248.243 62.5255 250.346 61.1651 252.522 59.9297C254.679 58.6571 256.906 57.5079 259.193 56.4875Z" fill="#EBEBEB"/>
  <path d="M264.639 61.9098C263.466 64.9527 261.827 67.7944 259.78 70.3327C260.353 68.8038 261.064 67.3305 261.905 65.9308C262.694 64.5118 263.609 63.1661 264.639 61.9098Z" fill="#EBEBEB"/>
  <path d="M272.056 60.9121C278.622 60.9121 283.944 55.5897 283.944 49.0242C283.944 42.4586 278.622 37.1362 272.056 37.1362C265.491 37.1362 260.168 42.4586 260.168 49.0242C260.168 55.5897 265.491 60.9121 272.056 60.9121Z" fill="#EBEBEB"/>
  <path d="M0.651245 349.582L41.5928 349.399L82.5419 349.33L164.425 349.201L246.308 349.33L287.257 349.399L328.199 349.582L287.257 349.772L246.308 349.841L164.425 349.963L82.5419 349.833L41.5928 349.772L0.651245 349.582Z" fill="#263238"/>
  <path d="M83.5013 199.486C83.5013 199.486 83.1205 234.586 94.78 272.161C101.497 293.828 115.601 316.332 127.39 333.391H107.78C107.78 333.391 90.8656 291.505 87.1187 272.641C78.7415 230.649 82.0315 198.884 82.0315 198.884L83.5013 199.486Z" fill="#C53F3F"/>
  <path opacity="0.3" d="M83.5013 199.486C83.5013 199.486 83.1205 234.586 94.78 272.161C101.497 293.828 115.601 316.332 127.39 333.391H107.78C107.78 333.391 90.8656 291.505 87.1187 272.641C78.7415 230.649 82.0315 198.884 82.0315 198.884L83.5013 199.486Z" fill="black"/>
  <path d="M102.677 320.307L102.845 320.764C103.799 320.764 104.751 320.749 105.701 320.719C107.331 320.719 108.96 320.635 110.598 320.536C108.96 320.437 107.331 320.391 105.701 320.353C104.696 320.33 103.683 320.315 102.677 320.307Z" fill="#C53F3F"/>
  <path d="M104.398 313.088C105.213 313.133 106.028 313.164 106.851 313.202L109.295 313.263C110.925 313.316 112.562 313.316 114.192 313.324H114.329C114.23 313.164 114.131 313.004 114.04 312.844C112.456 312.844 110.879 312.844 109.295 312.905L106.851 312.966C106.028 313.034 105.213 313.034 104.398 313.088Z" fill="#C53F3F"/>
  <path d="M106.934 309.912C107.749 309.965 108.572 309.988 109.387 310.026L111.831 310.095H112.402L112.174 309.706H111.831L109.387 309.775C108.572 309.836 107.749 309.859 106.934 309.912Z" fill="#C53F3F"/>
  <path d="M92.4192 291.612C92.4192 291.711 92.4801 291.802 92.5182 291.894C93.5996 291.894 94.6734 291.825 95.7548 291.756C94.643 291.711 93.5311 291.65 92.4192 291.612Z" fill="#C53F3F"/>
  <path d="M91.0331 287.263C91.0712 287.408 91.1245 287.545 91.1702 287.69H92.7694C94.3992 287.652 96.0289 287.606 97.6587 287.507C96.0289 287.408 94.3992 287.362 92.7694 287.324L91.0331 287.263Z" fill="#C53F3F"/>
  <path d="M86.1666 267.6C86.1739 267.69 86.1892 267.779 86.2123 267.866C87.1947 267.866 88.1924 267.798 89.1748 267.737C88.1695 267.676 87.1719 267.638 86.1666 267.6Z" fill="#C53F3F"/>
  <path d="M84.1028 248.378L86.5474 248.492L88.794 248.553L88.7255 248.203L86.5474 248.264C85.7325 248.302 84.9177 248.302 84.1028 248.378Z" fill="#C53F3F"/>
  <path d="M81.8411 230.877C81.8411 230.931 81.8411 230.984 81.8411 231.03L83.2956 230.953L81.8411 230.877Z" fill="#C53F3F"/>
  <path d="M85.984 246.017C86.7456 246.07 87.5528 246.093 88.3372 246.131L88.2915 245.903C87.5071 245.941 86.7456 245.964 85.984 246.017Z" fill="#C53F3F"/>
  <path d="M108.107 177.02L102.243 175.603L107.452 179.205C106.577 181.739 105.273 184.103 103.599 186.197L97.7349 183.569L101.878 188.138C101.207 188.821 100.498 189.464 99.753 190.065L96.3032 188.344L98.2375 191.208C96.7161 192.28 95.1059 193.22 93.4245 194.018L90.6296 190.911L92.2212 194.566C88.9178 195.979 85.4742 197.038 81.9478 197.727L106.188 155.627C107.452 158.804 108.292 162.132 108.686 165.528L106.12 165.49L108.831 166.906C108.922 167.988 108.968 169.107 108.953 170.265L102.86 169.633L108.793 173.067C108.657 174.399 108.428 175.72 108.107 177.02Z" fill="#455A64"/>
  <path d="M116.926 198.633L114.71 195.967L115.868 199.623C114.672 200.661 113.349 201.541 111.93 202.243L109.349 197.338L109.554 203.217C108.674 203.502 107.776 203.729 106.866 203.895L105.168 200.362L105.015 204.169C103.416 204.305 101.807 204.29 100.21 204.124L99.2884 197.97L97.6891 203.766C96.8819 203.613 96.0518 203.431 95.1912 203.21V199.166L93.0588 202.593C89.2567 201.342 85.5923 199.707 82.1228 197.711L121.724 191.093C120.691 193.925 119.054 196.498 116.926 198.633Z" fill="#37474F"/>
  <path d="M82.1152 197.757C78.6989 194.169 75.6784 190.225 73.1059 185.991L77.424 183.424L72.1388 184.331C71.3694 182.936 70.6729 181.502 70.0521 180.035L74.4539 177.126L69.123 177.697C68.6943 176.516 68.3257 175.314 68.0187 174.095L75.6343 171.331L67.1962 170.021C66.8347 167.406 66.7861 164.758 67.0515 162.131L77.0127 159.885L67.6532 158.361C67.7902 157.691 67.9578 157.029 68.1406 156.389L73.5248 156.595L68.6965 154.584C69.226 153.019 69.8622 151.493 70.6004 150.015L78.3683 151.584L71.9179 147.639C74.227 143.607 77.2098 140.001 80.7368 136.977L82.1152 197.757Z" fill="#37474F"/>
  <path d="M67.9121 192.297L69.557 188.017L66.1224 191.352C65.4598 190.994 64.7897 190.591 64.1271 190.218L65.9168 187.247L63.0838 189.578C62.0176 188.908 60.959 188.192 59.9309 187.438L62.6725 183.881L58.1869 186.082C56.2971 184.561 54.5717 182.845 53.0388 180.965L58.5906 176.395L51.5994 179C50.4964 177.375 49.5986 175.62 48.9264 173.775L54.4096 170.15L48.2714 171.674C48.0135 170.652 47.8302 169.614 47.7231 168.566L55.9556 164.911L47.6926 164.416C47.8142 163 48.0511 161.597 48.4009 160.22L54.3182 159.854L48.9873 158.232C50.0193 155.129 51.4232 152.163 53.1683 149.398C53.1683 149.398 61.4921 182.206 82.1076 197.742C77.2024 196.416 72.4458 194.591 67.9121 192.297Z" fill="#455A64"/>
  <path d="M71.3392 201.588L70.3568 199.562L70.7147 201.694C70.1207 201.77 69.5343 201.816 68.9708 201.839L68.2854 199.12L67.5238 201.854C66.7156 201.831 65.9094 201.76 65.1097 201.641L65.4904 197.14L63.3124 201.26C61.6584 200.828 60.0757 200.158 58.6135 199.272L59.3751 195.838L57.5702 198.572C56.9876 198.164 56.4282 197.724 55.8948 197.254L58.1109 193.568L54.7067 196.142C53.7996 195.223 52.9645 194.235 52.2088 193.188L54.1889 190.964L51.7138 192.434C51.4473 192.038 51.1959 191.672 50.9522 191.276L52.2926 190.05L50.5182 190.537C49.4429 188.723 48.5671 186.798 47.906 184.795C58.9943 195.632 82.1762 197.742 82.1762 197.742C78.8129 199.639 75.1464 200.941 71.3392 201.588Z" fill="#37474F"/>
  <path d="M101.802 214.161L101.208 212.272L100.971 214.245C100.211 214.299 99.4473 214.299 98.6867 214.245L98.9304 210.985L97.6282 214.138C96.4885 213.977 95.3715 213.683 94.3001 213.262L94.7952 210.049L92.7389 212.562C92.0389 212.195 91.367 211.778 90.7284 211.313L92.0688 208.861L89.944 210.711C89.4404 210.307 88.9598 209.875 88.5047 209.417L90.3705 206.462L87.0653 207.84C86.6312 207.307 86.1971 206.743 85.7707 206.134L87.3471 204.779L85.2833 205.403C83.729 202.963 82.4519 200.358 81.4755 197.635C81.4755 197.635 95.8461 209.972 108.054 212.303C106.102 213.302 103.982 213.932 101.802 214.161Z" fill="#455A64"/>
  <path d="M76 210.787L73.8676 208.685L75.1242 211.671C74.4994 212.242 73.821 212.752 73.0984 213.194L71.3012 211.511L72.276 213.666C71.9251 213.851 71.564 214.016 71.1945 214.161L69.2297 211.214L69.7933 214.656C68.6195 214.956 67.4098 215.092 66.1987 215.06L65.1097 212.562L64.9802 214.968C64.4243 214.907 63.8912 214.816 63.3809 214.709L62.9925 212.272L62.4594 214.481C60.7442 214.027 59.1028 213.329 57.5854 212.409C70.5929 210.658 81.7879 199.014 81.7879 199.014C80.2876 204.581 78.2542 208.327 76 210.787Z" fill="#455A64"/>
  <path d="M87.6899 206.957C87.4899 207.898 87.0154 208.759 86.3263 209.43C85.6372 210.102 84.7645 210.554 83.8185 210.73C82.8724 210.906 81.8955 210.797 81.0112 210.418C80.1269 210.038 79.3749 209.405 78.8503 208.599C78.3257 207.792 78.0519 206.848 78.0637 205.886C78.0755 204.924 78.3723 203.987 78.9165 203.193C79.4607 202.399 80.228 201.785 81.1213 201.427C82.0146 201.07 82.9939 200.985 83.9354 201.184C84.5611 201.316 85.1547 201.57 85.6821 201.932C86.2095 202.294 86.6605 202.756 87.0092 203.292C87.3579 203.828 87.5975 204.428 87.7143 205.057C87.8311 205.685 87.8228 206.331 87.6899 206.957Z" fill="#C53F3F"/>
  <path opacity="0.4" d="M87.6899 206.957C87.4899 207.898 87.0154 208.759 86.3263 209.43C85.6372 210.102 84.7645 210.554 83.8185 210.73C82.8724 210.906 81.8955 210.797 81.0112 210.418C80.1269 210.038 79.3749 209.405 78.8503 208.599C78.3257 207.792 78.0519 206.848 78.0637 205.886C78.0755 204.924 78.3723 203.987 78.9165 203.193C79.4607 202.399 80.228 201.785 81.1213 201.427C82.0146 201.07 82.9939 200.985 83.9354 201.184C84.5611 201.316 85.1547 201.57 85.6821 201.932C86.2095 202.294 86.6605 202.756 87.0092 203.292C87.3579 203.828 87.5975 204.428 87.7143 205.057C87.8311 205.685 87.8228 206.331 87.6899 206.957Z" fill="black"/>
  <path d="M84.4609 201.847C84.2623 202.79 83.7883 203.653 83.099 204.328C82.4097 205.002 81.5359 205.456 80.5882 205.634C79.6406 205.811 78.6616 205.703 77.7751 205.324C76.8886 204.945 76.1344 204.312 75.608 203.504C75.0816 202.696 74.8066 201.75 74.8177 200.786C74.8289 199.822 75.1257 198.883 75.6706 198.088C76.2156 197.292 76.9842 196.677 77.8792 196.318C78.7742 195.96 79.7554 195.875 80.6987 196.074C81.9619 196.343 83.067 197.101 83.7721 198.183C84.4772 199.265 84.7249 200.582 84.4609 201.847Z" fill="#C53F3F"/>
  <path opacity="0.3" d="M84.4609 201.847C84.2623 202.79 83.7883 203.653 83.099 204.328C82.4097 205.002 81.5359 205.456 80.5882 205.634C79.6406 205.811 78.6616 205.703 77.7751 205.324C76.8886 204.945 76.1344 204.312 75.608 203.504C75.0816 202.696 74.8066 201.75 74.8177 200.786C74.8289 199.822 75.1257 198.883 75.6706 198.088C76.2156 197.292 76.9842 196.677 77.8792 196.318C78.7742 195.96 79.7554 195.875 80.6987 196.074C81.9619 196.343 83.067 197.101 83.7721 198.183C84.4772 199.265 84.7249 200.582 84.4609 201.847Z" fill="black"/>
  <path d="M89.4186 202.007C89.2187 202.948 88.7442 203.809 88.0551 204.48C87.366 205.152 86.4933 205.604 85.5472 205.78C84.6012 205.955 83.6243 205.847 82.74 205.467C81.8557 205.088 81.1037 204.455 80.579 203.648C80.0544 202.842 79.7807 201.898 79.7925 200.936C79.8043 199.973 80.101 199.036 80.6452 198.243C81.1895 197.449 81.9567 196.835 82.8501 196.477C83.7434 196.12 84.7227 196.035 85.6641 196.234C86.2899 196.366 86.8834 196.62 87.4109 196.982C87.9383 197.344 88.3892 197.806 88.7379 198.342C89.0866 198.878 89.3262 199.478 89.443 200.106C89.5598 200.735 89.5515 201.381 89.4186 202.007Z" fill="#C53F3F"/>
  <path opacity="0.2" d="M89.4186 202.007C89.2187 202.948 88.7442 203.809 88.0551 204.48C87.366 205.152 86.4933 205.604 85.5472 205.78C84.6012 205.955 83.6243 205.847 82.74 205.467C81.8557 205.088 81.1037 204.455 80.579 203.648C80.0544 202.842 79.7807 201.898 79.7925 200.936C79.8043 199.973 80.101 199.036 80.6452 198.243C81.1895 197.449 81.9567 196.835 82.8501 196.477C83.7434 196.12 84.7227 196.035 85.6641 196.234C86.2899 196.366 86.8834 196.62 87.4109 196.982C87.9383 197.344 88.3892 197.806 88.7379 198.342C89.0866 198.878 89.3262 199.478 89.443 200.106C89.5598 200.735 89.5515 201.381 89.4186 202.007Z" fill="black"/>
  <path d="M40.4274 233.984C40.799 252.449 44.4317 270.703 51.1578 287.903C57.5549 303.995 98.4507 320.65 109.676 333.361H91.0026C91.0026 333.361 47.4261 302.251 43.862 288.269C35.9266 257.09 39.0185 233.512 39.0185 233.512L40.4274 233.984Z" fill="#C53F3F"/>
  <path opacity="0.3" d="M40.4274 233.984C40.799 252.449 44.4317 270.703 51.1578 287.903C57.5549 303.995 98.4507 320.65 109.676 333.361H91.0026C91.0026 333.361 47.4261 302.251 43.862 288.269C35.9266 257.09 39.0185 233.512 39.0185 233.512L40.4274 233.984Z" fill="black"/>
  <path d="M78.1475 323.696L78.5739 324.031H80.7825C82.3056 324.031 83.8972 323.963 85.4432 323.894C83.9201 323.818 82.336 323.788 80.7825 323.757L78.1475 323.696Z" fill="#C53F3F"/>
  <path d="M81.5669 318.312C82.3285 318.358 83.09 318.373 83.8897 318.411L86.22 318.449C87.2177 318.449 88.2229 318.449 89.2282 318.487C89.0378 318.373 88.855 318.266 88.6723 318.145C87.8574 318.145 87.0425 318.145 86.22 318.183L83.8897 318.228C83.1129 318.259 82.3361 318.274 81.5669 318.312Z" fill="#C53F3F"/>
  <path d="M86.799 319.508L89.1293 319.599L91.0865 319.645L90.6829 319.386L89.1598 319.424L86.799 319.508Z" fill="#C53F3F"/>
  <path d="M53.8232 302.373C53.8828 302.442 53.9463 302.508 54.0136 302.571C54.9427 302.571 55.8642 302.517 56.7933 302.479C55.8109 302.434 54.8133 302.411 53.8232 302.373Z" fill="#C53F3F"/>
  <path d="M50.838 299.159C50.9218 299.25 51.0132 299.357 51.0893 299.456H51.79C53.3131 299.456 54.8895 299.395 56.4431 299.319C54.92 299.25 53.3435 299.22 51.79 299.189L50.838 299.159Z" fill="#C53F3F"/>
  <path d="M42.9559 284.552L43.0016 284.75C43.9383 284.75 44.8827 284.697 45.827 284.651C44.8598 284.613 43.9155 284.575 42.9559 284.552Z" fill="#C53F3F"/>
  <path d="M40.9987 270.28C41.7602 270.319 42.5218 270.334 43.2833 270.364L45.4233 270.41L45.3548 270.151L43.2833 270.197C42.5751 270.22 41.7678 270.242 40.9987 270.28Z" fill="#C53F3F"/>
  <path d="M38.8434 257.296C38.8475 257.331 38.8475 257.367 38.8434 257.402L40.237 257.349C39.7801 257.326 39.3079 257.303 38.8434 257.296Z" fill="#C53F3F"/>
  <path d="M42.7731 268.529C43.5346 268.567 44.2962 268.59 45.0044 268.613C45.0088 268.557 45.0088 268.501 45.0044 268.445C44.2353 268.476 43.5042 268.491 42.7731 268.529Z" fill="#C53F3F"/>
  <path d="M54.1051 212.318L49.3378 212.356L54.0214 214.123C53.8403 216.231 53.2967 218.292 52.4145 220.215L47.411 219.362L51.4625 222.058C51.0789 222.709 50.6541 223.335 50.1907 223.932L47.2206 223.277L49.254 225.105C48.2893 226.206 47.2348 227.225 46.1011 228.151L43.3671 226.308L45.2863 228.798C43.0232 230.525 40.5826 232.006 38.0057 233.215L48.5153 196.272C50.0899 198.461 51.3702 200.847 52.3231 203.37L50.343 203.827L52.6962 204.398C52.9929 205.235 53.247 206.086 53.4578 206.949L48.6752 207.634L53.8767 209.158C54.0292 210.204 54.1056 211.26 54.1051 212.318Z" fill="#455A64"/>
  <path d="M65.0182 227.199L62.8097 225.577L64.4013 228.166C63.6811 229.19 62.8341 230.119 61.8805 230.931L58.9562 227.663L60.2508 232.134C59.632 232.523 58.9855 232.867 58.3164 233.162L56.3288 230.786L56.9456 233.725C55.74 234.133 54.498 234.424 53.2368 234.594L51.3482 230.024L51.2339 234.769C50.5866 234.815 49.9088 234.837 49.2082 234.83L48.4466 231.73L47.4718 234.776C44.3142 234.547 41.1883 233.996 38.1427 233.131L67.2496 220.459C67.0074 222.842 66.2457 225.142 65.0182 227.199Z" fill="#37474F"/>
  <path d="M38.1579 233.208C34.8553 231.116 31.7909 228.669 29.0192 225.912L31.837 223.117L27.9606 224.815C27.0999 223.892 26.289 222.923 25.5313 221.914L28.349 218.867L24.3813 220.322C23.8101 219.469 23.2999 218.616 22.8582 217.771L28.1891 214.184L21.4645 214.801C20.688 212.863 20.141 210.842 19.8348 208.777L27.0468 205.144L19.5682 205.769C19.5682 205.228 19.5682 204.695 19.5682 204.162L23.734 203.286L19.5987 202.608C19.708 201.305 19.9013 200.01 20.1775 198.732L26.3994 198.503L20.6877 196.721C21.6867 193.188 23.2837 189.853 25.4094 186.859L38.1579 233.208Z" fill="#37474F"/>
  <path d="M26.2167 231.753L26.6508 228.151L24.6555 231.372C24.0767 231.22 23.498 231.06 22.9116 230.877L23.6731 228.258L22.0129 230.588C21.0686 230.283 20.1242 229.941 19.1875 229.552L20.604 226.3L17.5578 228.852C15.8183 228.047 14.167 227.065 12.6305 225.92L16.0042 221.35L11.1531 224.693C9.99422 223.664 8.97063 222.492 8.10681 221.205L11.6176 217.398L7.19294 219.728C6.80169 218.991 6.46322 218.228 6.18006 217.443L11.7928 213.064L5.36519 214.268C5.18083 213.158 5.09166 212.034 5.09865 210.909L9.56139 209.462L5.14434 209.241C5.34186 206.663 5.85335 204.118 6.66746 201.664C6.66746 201.664 19.3474 225.227 38.1656 233.177C34.1444 233.113 30.1405 232.635 26.2167 231.753Z" fill="#455A64"/>
  <path d="M30.6263 238.219L29.4763 236.878L30.1617 238.447C29.72 238.615 29.2783 238.767 28.8518 238.896L27.8009 236.878L27.7552 239.163C27.133 239.304 26.502 239.403 25.8665 239.46L25.2954 235.934L24.4196 239.521C23.0665 239.503 21.7228 239.293 20.429 238.896L20.33 236.117L19.4694 238.561C18.9505 238.359 18.4421 238.13 17.9463 237.876L18.9363 234.624L16.8192 237.252C15.9469 236.72 15.1169 236.121 14.3365 235.462L15.4255 233.375L13.7958 234.997L13.0342 234.236L13.7958 233.04L12.5316 233.756C11.3804 232.563 10.3593 231.251 9.48535 229.842C20.0634 236.025 38.2495 233.17 38.2495 233.17C36.0217 235.284 33.4419 236.992 30.6263 238.219Z" fill="#37474F"/>
  <path d="M56.4049 242.019L55.5824 240.686L55.7804 242.247C55.2125 242.431 54.6322 242.573 54.0441 242.674L53.5643 240.13L53.1683 242.803C52.2649 242.906 51.3529 242.906 50.4495 242.803L50.2134 240.237L49.1168 242.56C48.5095 242.413 47.9138 242.223 47.3347 241.988L47.8906 239.848L46.6188 241.676C46.154 241.463 45.7014 241.224 45.2633 240.96L46.1314 238.341L43.8468 240.024C43.405 239.704 42.971 239.353 42.5293 238.965L43.4736 237.625L42.0114 238.501C40.3563 236.926 38.8824 235.171 37.6172 233.269C37.6172 233.269 51.0054 239.97 60.8143 239.414C59.516 240.545 58.0215 241.427 56.4049 242.019Z" fill="#455A64"/>
  <path d="M35.9648 244.38L33.9238 243.176L35.4469 245.225C35.0839 245.784 34.6655 246.304 34.198 246.779L32.4997 245.827L33.6572 247.297C33.4143 247.506 33.16 247.701 32.8957 247.883L30.8319 246.017L31.9133 248.545C31.0723 248.999 30.1728 249.335 29.2402 249.543L27.9151 247.837L28.2882 249.703C27.8614 249.763 27.4319 249.801 27.0012 249.817L26.2396 248.02V249.817C24.8369 249.8 23.444 249.579 22.1044 249.162C31.7457 245.355 38.0971 234.243 38.0971 234.243C38.0591 238.798 37.2442 242.065 35.9648 244.38Z" fill="#455A64"/>
  <path d="M44.197 239.201C44.2252 239.963 44.0267 240.716 43.6269 241.365C43.227 242.014 42.6437 242.53 41.9506 242.847C41.2576 243.164 40.486 243.269 39.7334 243.148C38.9809 243.027 38.2812 242.685 37.7228 242.166C37.1645 241.647 36.7726 240.974 36.5967 240.232C36.4208 239.491 36.4688 238.714 36.7347 237.999C37.0005 237.285 37.4723 236.665 38.0903 236.219C38.7083 235.773 39.4447 235.52 40.2065 235.492C41.2268 235.457 42.2195 235.828 42.9674 236.523C43.7152 237.218 44.1574 238.181 44.197 239.201Z" fill="#C53F3F"/>
  <path opacity="0.4" d="M44.197 239.201C44.2252 239.963 44.0267 240.716 43.6269 241.365C43.227 242.014 42.6437 242.53 41.9506 242.847C41.2576 243.164 40.486 243.269 39.7334 243.148C38.9809 243.027 38.2812 242.685 37.7228 242.166C37.1645 241.647 36.7726 240.974 36.5967 240.232C36.4208 239.491 36.4688 238.714 36.7347 237.999C37.0005 237.285 37.4723 236.665 38.0903 236.219C38.7083 235.773 39.4447 235.52 40.2065 235.492C41.2268 235.457 42.2195 235.828 42.9674 236.523C43.7152 237.218 44.1574 238.181 44.197 239.201Z" fill="black"/>
  <path d="M40.7473 235.904C40.7755 236.665 40.577 237.418 40.1772 238.067C39.7773 238.716 39.194 239.232 38.5009 239.549C37.8079 239.867 37.0363 239.971 36.2837 239.85C35.5312 239.729 34.8315 239.387 34.2731 238.868C33.7148 238.35 33.3229 237.677 33.147 236.935C32.9711 236.193 33.0191 235.416 33.285 234.702C33.5508 233.987 34.0226 233.368 34.6406 232.922C35.2586 232.475 35.995 232.222 36.7568 232.195C37.7777 232.158 38.7715 232.528 39.5198 233.223C40.2681 233.919 40.7097 234.883 40.7473 235.904Z" fill="#C53F3F"/>
  <path opacity="0.3" d="M40.7473 235.904C40.7755 236.665 40.577 237.418 40.1772 238.067C39.7773 238.716 39.194 239.232 38.5009 239.549C37.8079 239.867 37.0363 239.971 36.2837 239.85C35.5312 239.729 34.8315 239.387 34.2731 238.868C33.7148 238.35 33.3229 237.677 33.147 236.935C32.9711 236.193 33.0191 235.416 33.285 234.702C33.5508 233.987 34.0226 233.368 34.6406 232.922C35.2586 232.475 35.995 232.222 36.7568 232.195C37.7777 232.158 38.7715 232.528 39.5198 233.223C40.2681 233.919 40.7097 234.883 40.7473 235.904Z" fill="black"/>
  <path d="M44.5703 235.066C44.5985 235.828 44.4 236.581 44.0002 237.23C43.6003 237.878 43.017 238.394 42.3239 238.712C41.6309 239.029 40.8593 239.134 40.1067 239.013C39.3542 238.891 38.6545 238.55 38.0961 238.031C37.5378 237.512 37.1459 236.839 36.97 236.097C36.7941 235.356 36.8421 234.578 37.108 233.864C37.3738 233.15 37.8456 232.53 38.4636 232.084C39.0816 231.638 39.818 231.385 40.5798 231.357C41.0867 231.333 41.5935 231.41 42.0703 231.584C42.547 231.758 42.9842 232.026 43.356 232.371C43.7278 232.717 44.0267 233.133 44.2353 233.596C44.4438 234.059 44.5577 234.558 44.5703 235.066Z" fill="#C53F3F"/>
  <path opacity="0.2" d="M44.5703 235.066C44.5985 235.828 44.4 236.581 44.0002 237.23C43.6003 237.878 43.017 238.394 42.3239 238.712C41.6309 239.029 40.8593 239.134 40.1067 239.013C39.3542 238.891 38.6545 238.55 38.0961 238.031C37.5378 237.512 37.1459 236.839 36.97 236.097C36.7941 235.356 36.8421 234.578 37.108 233.864C37.3738 233.15 37.8456 232.53 38.4636 232.084C39.0816 231.638 39.818 231.385 40.5798 231.357C41.0867 231.333 41.5935 231.41 42.0703 231.584C42.547 231.758 42.9842 232.026 43.356 232.371C43.7278 232.717 44.0267 233.133 44.2353 233.596C44.4438 234.059 44.5577 234.558 44.5703 235.066Z" fill="black"/>
  <path d="M288.422 233.984C288.051 252.449 284.418 270.703 277.692 287.903C271.295 303.995 230.399 320.65 219.173 333.361H237.847C237.847 333.361 281.423 302.251 284.988 288.269C292.923 257.09 289.831 233.512 289.831 233.512L288.422 233.984Z" fill="#C53F3F"/>
  <path opacity="0.3" d="M288.422 233.984C288.051 252.449 284.418 270.703 277.692 287.903C271.295 303.995 230.399 320.65 219.173 333.361H237.847C237.847 333.361 281.423 302.251 284.988 288.269C292.923 257.09 289.831 233.512 289.831 233.512L288.422 233.984Z" fill="black"/>
  <path d="M250.702 323.696L250.283 324.031H248.067C246.544 324.031 244.952 323.963 243.406 323.894C244.929 323.818 246.513 323.788 248.067 323.757L250.702 323.696Z" fill="#C53F3F"/>
  <path d="M247.283 318.312C246.521 318.358 245.76 318.373 244.96 318.411L242.63 318.449C241.632 318.449 240.627 318.449 239.621 318.487C239.812 318.373 239.995 318.266 240.177 318.145C240.992 318.145 241.807 318.145 242.63 318.183L244.96 318.228C245.737 318.259 246.513 318.274 247.283 318.312Z" fill="#C53F3F"/>
  <path d="M242.051 319.508L239.72 319.599L237.763 319.645L238.167 319.386L239.69 319.424L242.051 319.508Z" fill="#C53F3F"/>
  <path d="M275.026 302.373C274.967 302.442 274.903 302.508 274.836 302.571C273.907 302.571 272.985 302.517 272.056 302.479C273.039 302.434 274.036 302.411 275.026 302.373Z" fill="#C53F3F"/>
  <path d="M278.012 299.159C277.928 299.25 277.836 299.357 277.76 299.456H277.06C275.536 299.456 273.96 299.395 272.406 299.319C273.93 299.25 275.506 299.22 277.06 299.189L278.012 299.159Z" fill="#C53F3F"/>
  <path d="M285.894 284.552L285.848 284.75C284.911 284.75 283.967 284.697 283.023 284.651C283.99 284.613 284.934 284.575 285.894 284.552Z" fill="#C53F3F"/>
  <path d="M287.851 270.28C287.089 270.319 286.328 270.334 285.528 270.364L283.388 270.41L283.457 270.151L285.528 270.197C286.274 270.22 287.082 270.242 287.851 270.28Z" fill="#C53F3F"/>
  <path d="M290.006 257.296C290.002 257.331 290.002 257.367 290.006 257.402L288.612 257.349C289.069 257.326 289.541 257.303 290.006 257.296Z" fill="#C53F3F"/>
  <path d="M286.076 268.529C285.315 268.567 284.553 268.59 283.845 268.613C283.853 268.556 283.866 268.5 283.883 268.445C284.614 268.476 285.345 268.491 286.076 268.529Z" fill="#C53F3F"/>
  <path d="M274.744 212.318L279.512 212.356L274.851 214.123C275.032 216.231 275.576 218.292 276.458 220.215L281.461 219.332L277.41 222.028C277.788 222.687 278.205 223.323 278.659 223.932L281.629 223.277L279.596 225.105C280.56 226.206 281.615 227.225 282.748 228.151L285.482 226.308L283.563 228.798C285.825 230.519 288.263 231.995 290.836 233.2L280.327 196.257C278.752 198.446 277.472 200.832 276.519 203.354L278.499 203.811L276.146 204.383C275.849 205.22 275.595 206.071 275.384 206.934L280.167 207.619L274.965 209.142C274.815 210.194 274.741 211.256 274.744 212.318Z" fill="#455A64"/>
  <path d="M263.831 227.199L266.04 225.577L264.448 228.166C265.168 229.19 266.015 230.119 266.969 230.931L269.893 227.663L268.599 232.134C269.217 232.523 269.864 232.867 270.533 233.162L272.521 230.778L271.904 233.718C273.109 234.128 274.351 234.421 275.613 234.594L277.501 230.024L277.615 234.769C278.263 234.815 278.941 234.837 279.641 234.83L280.403 231.73L281.378 234.776C284.535 234.547 287.661 233.996 290.707 233.131L261.6 220.459C261.842 222.842 262.604 225.142 263.831 227.199Z" fill="#37474F"/>
  <path d="M290.692 233.208C294.007 231.118 297.085 228.671 299.868 225.912L297.051 223.117L300.927 224.815C301.788 223.892 302.599 222.923 303.356 221.914L300.539 218.867L304.506 220.322C305.077 219.469 305.588 218.616 306.029 217.771L300.698 214.184L307.423 214.801C308.2 212.863 308.747 210.841 309.053 208.777L301.841 205.144L309.319 205.769C309.319 205.228 309.319 204.695 309.319 204.162L305.154 203.286L309.243 202.669C309.134 201.366 308.941 200.071 308.664 198.793L302.442 198.564L308.154 196.782C307.155 193.249 305.558 189.914 303.432 186.92L290.692 233.208Z" fill="#37474F"/>
  <path d="M302.633 231.753L302.199 228.151L304.194 231.372C304.773 231.22 305.351 231.06 305.938 230.877L305.138 228.258L306.867 230.588C307.811 230.283 308.756 229.941 309.692 229.552L308.276 226.3L311.322 228.852C313.062 228.047 314.713 227.065 316.249 225.92L312.876 221.35L317.727 224.716C318.886 223.687 319.909 222.515 320.773 221.228L317.262 217.421L321.687 219.751C322.078 219.014 322.417 218.251 322.7 217.466L317.087 213.087L323.515 214.29C323.699 213.181 323.788 212.057 323.781 210.932L319.288 209.462L323.705 209.241C323.508 206.663 322.996 204.118 322.182 201.664C322.182 201.664 309.502 225.227 290.684 233.177C294.705 233.113 298.709 232.635 302.633 231.753Z" fill="#455A64"/>
  <path d="M298.223 238.219L299.373 236.878L298.688 238.447C299.13 238.615 299.571 238.767 299.998 238.897L301.049 236.878L301.094 239.117C301.717 239.259 302.348 239.358 302.983 239.414L303.554 235.888L304.43 239.475C305.783 239.458 307.127 239.247 308.421 238.851L308.52 236.071L309.38 238.516C309.899 238.313 310.407 238.084 310.903 237.83L309.913 234.578L312.03 237.206C312.903 236.674 313.733 236.076 314.513 235.416L313.424 233.33L315.054 234.952L315.815 234.19L315.054 232.994L316.318 233.71C317.469 232.517 318.49 231.205 319.364 229.796C308.786 235.98 290.6 233.124 290.6 233.124C292.824 235.254 295.404 236.978 298.223 238.219Z" fill="#37474F"/>
  <path d="M272.445 242.019L273.267 240.679L273.069 242.24C273.637 242.423 274.217 242.565 274.805 242.666L275.285 240.123L275.681 242.796C276.585 242.898 277.497 242.898 278.4 242.796L278.636 240.229L279.733 242.552C280.34 242.406 280.936 242.215 281.515 241.981L280.959 239.841L282.231 241.669C282.696 241.455 283.148 241.216 283.586 240.953L282.718 238.333L285.003 240.016C285.444 239.696 285.879 239.346 286.32 238.957L285.376 237.617L286.838 238.493C288.493 236.918 289.967 235.163 291.232 233.261C291.232 233.261 277.829 239.925 267.997 239.376C269.304 240.524 270.812 241.42 272.445 242.019Z" fill="#455A64"/>
  <path d="M292.885 244.38L294.926 243.176L293.403 245.225C293.766 245.784 294.184 246.304 294.652 246.779L296.35 245.827L295.192 247.297C295.435 247.506 295.69 247.701 295.954 247.883L298.056 245.987L296.936 248.545C297.777 248.999 298.677 249.335 299.61 249.543L300.935 247.837L300.561 249.703C300.988 249.763 301.418 249.801 301.849 249.817L302.61 248.02V249.817C304.013 249.8 305.406 249.579 306.745 249.162C297.104 245.355 290.753 234.243 290.753 234.243C290.791 238.798 291.606 242.065 292.885 244.38Z" fill="#455A64"/>
  <path d="M284.652 239.201C284.624 239.963 284.823 240.716 285.222 241.365C285.622 242.014 286.206 242.53 286.899 242.847C287.592 243.164 288.363 243.269 289.116 243.148C289.868 243.027 290.568 242.685 291.127 242.166C291.685 241.647 292.077 240.974 292.253 240.232C292.429 239.491 292.381 238.714 292.115 237.999C291.849 237.285 291.377 236.665 290.759 236.219C290.141 235.773 289.405 235.52 288.643 235.492C287.622 235.457 286.63 235.828 285.882 236.523C285.134 237.218 284.692 238.181 284.652 239.201Z" fill="#C53F3F"/>
  <path opacity="0.4" d="M284.652 239.201C284.624 239.963 284.823 240.716 285.222 241.365C285.622 242.014 286.206 242.53 286.899 242.847C287.592 243.164 288.363 243.269 289.116 243.148C289.868 243.027 290.568 242.685 291.127 242.166C291.685 241.647 292.077 240.974 292.253 240.232C292.429 239.491 292.381 238.714 292.115 237.999C291.849 237.285 291.377 236.665 290.759 236.219C290.141 235.773 289.405 235.52 288.643 235.492C287.622 235.457 286.63 235.828 285.882 236.523C285.134 237.218 284.692 238.181 284.652 239.201Z" fill="black"/>
  <path d="M288.102 235.904C288.074 236.665 288.272 237.418 288.672 238.067C289.072 238.716 289.655 239.232 290.349 239.549C291.042 239.867 291.813 239.971 292.566 239.85C293.318 239.729 294.018 239.387 294.576 238.868C295.135 238.35 295.527 237.677 295.702 236.935C295.878 236.193 295.83 235.416 295.564 234.702C295.299 233.987 294.827 233.368 294.209 232.922C293.591 232.475 292.854 232.222 292.093 232.195C291.072 232.158 290.078 232.528 289.33 233.223C288.581 233.919 288.14 234.883 288.102 235.904Z" fill="#C53F3F"/>
  <path opacity="0.3" d="M288.102 235.904C288.074 236.665 288.272 237.418 288.672 238.067C289.072 238.716 289.655 239.232 290.349 239.549C291.042 239.867 291.813 239.971 292.566 239.85C293.318 239.729 294.018 239.387 294.576 238.868C295.135 238.35 295.527 237.677 295.702 236.935C295.878 236.193 295.83 235.416 295.564 234.702C295.299 233.987 294.827 233.368 294.209 232.922C293.591 232.475 292.854 232.222 292.093 232.195C291.072 232.158 290.078 232.528 289.33 233.223C288.581 233.919 288.14 234.883 288.102 235.904Z" fill="black"/>
  <path d="M284.279 235.066C284.251 235.828 284.449 236.581 284.849 237.23C285.249 237.878 285.832 238.394 286.526 238.712C287.219 239.029 287.99 239.134 288.743 239.013C289.495 238.891 290.195 238.55 290.753 238.031C291.312 237.512 291.704 236.839 291.879 236.097C292.055 235.356 292.007 234.578 291.741 233.864C291.476 233.15 291.004 232.53 290.386 232.084C289.768 231.638 289.031 231.385 288.27 231.357C287.763 231.333 287.256 231.41 286.779 231.584C286.302 231.758 285.865 232.026 285.494 232.371C285.122 232.717 284.823 233.133 284.614 233.596C284.406 234.059 284.292 234.558 284.279 235.066Z" fill="#C53F3F"/>
  <path opacity="0.2" d="M284.279 235.066C284.251 235.828 284.449 236.581 284.849 237.23C285.249 237.878 285.832 238.394 286.526 238.712C287.219 239.029 287.99 239.134 288.743 239.013C289.495 238.891 290.195 238.55 290.753 238.031C291.312 237.512 291.704 236.839 291.879 236.097C292.055 235.356 292.007 234.578 291.741 233.864C291.476 233.15 291.004 232.53 290.386 232.084C289.768 231.638 289.031 231.385 288.27 231.357C287.763 231.333 287.256 231.41 286.779 231.584C286.302 231.758 285.865 232.026 285.494 232.371C285.122 232.717 284.823 233.133 284.614 233.596C284.406 234.059 284.292 234.558 284.279 235.066Z" fill="black"/>
  <g opacity="0.6">
    <path opacity="0.6" d="M151.905 24.7967L13.7273 54.4138L137.725 17.8208L151.905 24.7967Z" fill="#EBEBEB"/>
    <path opacity="0.6" d="M132.622 33.6765C125.273 35.5423 117.878 37.1873 110.476 38.7485C106.775 39.51 103.066 40.2716 99.3572 41.0332L88.2155 43.2036L77.0511 45.237C73.3194 45.8767 69.5954 46.5545 65.8561 47.1485C58.3928 48.3822 50.9067 49.5398 43.3824 50.4689C50.7315 48.6031 58.1186 46.9581 65.5286 45.3969C69.2298 44.5973 72.9386 43.8738 76.6474 43.1122L87.7891 40.9189L98.9307 38.916C102.655 38.2763 106.379 37.5985 110.118 37.0045C117.612 35.7708 125.098 34.6132 132.622 33.6765Z" fill="#EBEBEB"/>
    <path opacity="0.6" d="M80.2878 31.308C75.6626 33.0393 71.0069 34.6792 66.3208 36.2277C61.6448 37.7965 56.9383 39.2739 52.2319 40.7438C47.5255 42.2136 42.7962 43.6072 38.044 44.94C33.2919 46.2727 28.5321 47.5597 23.7267 48.7478C28.357 47.0114 33.0126 45.369 37.6937 43.8205C42.3697 42.2516 47.0761 40.7742 51.7826 39.3044C56.489 37.8346 61.2259 36.4486 65.9705 35.1082C70.715 33.7679 75.49 32.4808 80.2878 31.308Z" fill="#EBEBEB"/>
  </g>
  <path d="M155.393 25.8857C155.126 25.5811 151.425 22.9918 151.151 22.8014L151.783 22.6948C151.783 22.6948 155.164 25.5659 155.393 25.8857Z" fill="#C53F3F"/>
  <path opacity="0.5" d="M155.393 25.8857C155.126 25.5811 151.425 22.9918 151.151 22.8014L151.783 22.6948C151.783 22.6948 155.164 25.5659 155.393 25.8857Z" fill="white"/>
  <path d="M155.408 25.9086C155.408 25.9771 155.126 26.0304 154.844 26.0685C154.58 26.1155 154.309 26.1155 154.045 26.0685C153.969 26.0152 151.296 24.6825 149.658 23.86H149.597L149.369 23.7457L148.661 23.403L148.402 23.2736L151.151 22.8014L153.664 24.5758L153.771 24.6596L154.075 24.8728C154.533 25.1858 154.973 25.5239 155.393 25.8857L155.408 25.9086Z" fill="#C53F3F"/>
  <g opacity="0.1">
    <path opacity="0.1" d="M155.408 25.9086C155.408 25.9771 155.126 26.0304 154.845 26.0685C154.58 26.1155 154.309 26.1155 154.045 26.0685C153.969 26.0152 151.227 24.6444 149.597 23.8295C149.864 23.959 153.405 25.6496 154.091 24.8424C154.548 25.1553 154.988 25.4935 155.408 25.8553V25.9086Z" fill="black"/>
  </g>
  <path d="M191.62 28.9243C191.62 29.2975 189.594 29.4117 189.335 29.3356C189.077 29.2594 166.984 20.57 166.984 20.57L175.087 17.3562L175.323 17.5238L175.422 17.5923C176.945 18.628 181.385 21.7276 185.284 24.4464L185.52 24.6139L185.825 24.8271C188.521 26.7158 190.866 28.3608 191.62 28.9243Z" fill="#C53F3F"/>
  <path d="M191.62 28.9243C189.648 27.4545 176.77 18.529 175.079 17.3562L176.107 16.9526C176.107 16.9526 191.11 28.376 191.567 28.8177C191.598 28.8451 191.617 28.8832 191.62 28.9243Z" fill="#C53F3F"/>
  <path opacity="0.5" d="M191.62 28.9243C189.648 27.4545 176.77 18.529 175.079 17.3562L176.107 16.9526C176.107 16.9526 191.11 28.376 191.567 28.8177C191.598 28.8451 191.617 28.8832 191.62 28.9243Z" fill="white"/>
  <g opacity="0.5">
    <path opacity="0.1" d="M191.62 28.9243C191.62 29.2975 189.594 29.4117 189.335 29.3356C189.077 29.2594 166.984 20.57 166.984 20.57L175.087 17.3562C175.087 17.3562 173.084 19.6409 177.843 23.1822C181.088 25.5887 184.545 26.0913 185.825 24.8271C188.521 26.7158 190.866 28.3608 191.62 28.9243Z" fill="black"/>
  </g>
  <path d="M173.236 23.403C172.604 23.7076 171.926 23.9437 171.873 23.3192C171.873 23.0603 172.056 22.7785 173.061 22.2988C173.297 22.1845 173.876 21.9332 174.051 22.4511C174.226 22.9689 173.472 23.304 173.236 23.403Z" fill="#C53F3F"/>
  <path opacity="0.1" d="M173.236 23.403C172.604 23.7076 171.926 23.9437 171.873 23.3192C171.873 23.0603 172.056 22.7785 173.061 22.2988C173.297 22.1845 173.876 21.9332 174.051 22.4511C174.226 22.9689 173.472 23.304 173.236 23.403Z" fill="black"/>
  <path d="M178.346 25.5125C177.722 25.8172 177.044 26.0533 176.991 25.4288C176.991 25.1699 177.173 24.8881 178.179 24.4083C178.415 24.2941 178.994 24.0427 179.161 24.5606C179.329 25.0785 178.582 25.3983 178.346 25.5125Z" fill="#C53F3F"/>
  <path opacity="0.1" d="M178.346 25.5125C177.722 25.8172 177.044 26.0533 176.991 25.4288C176.991 25.1699 177.173 24.8881 178.179 24.4083C178.415 24.2941 178.994 24.0427 179.161 24.5606C179.329 25.0785 178.582 25.3983 178.346 25.5125Z" fill="black"/>
  <path d="M183.464 27.6068C182.839 27.9114 182.154 28.1475 182.108 27.5154C182.108 27.2641 182.291 26.9823 183.296 26.5026C183.533 26.3883 184.111 26.1294 184.279 26.6549C184.446 27.1803 183.7 27.4926 183.464 27.6068Z" fill="#C53F3F"/>
  <path opacity="0.1" d="M183.464 27.6068C182.839 27.9114 182.154 28.1475 182.108 27.5154C182.108 27.2641 182.291 26.9823 183.296 26.5026C183.533 26.3883 184.111 26.1294 184.279 26.6549C184.446 27.1803 183.7 27.4926 183.464 27.6068Z" fill="black"/>
  <path d="M181.796 22.1084C181.179 23.1974 179.778 23.6315 178.895 23.9513C176.541 24.8881 174.836 25.4212 173.99 23.2812C173.891 23.038 173.83 22.7812 173.807 22.5196C173.67 20.9051 175.331 20.0978 176.183 19.6561C177.204 19.1154 177.927 18.7651 178.468 18.5366C178.991 18.2787 179.561 18.1334 180.144 18.1102C180.616 18.1102 181.667 18.2092 182.048 20.1816C182.194 20.8334 182.105 21.516 181.796 22.1084Z" fill="#C53F3F"/>
  <path d="M181.819 20.57C181.819 21.7733 181.057 22.7481 180.143 22.7481C179.23 22.7481 178.468 21.7733 178.468 20.57C178.468 19.3667 179.23 18.3996 180.143 18.3996C181.057 18.3996 181.819 19.3744 181.819 20.57Z" fill="#263238"/>
  <path d="M181.628 20.57C181.555 20.8438 181.406 21.0917 181.199 21.2855C180.992 21.4794 180.735 21.6117 180.457 21.6674C180.179 21.7231 179.891 21.7001 179.625 21.6009C179.359 21.5017 179.127 21.3303 178.953 21.1061C178.78 20.8818 178.672 20.6135 178.643 20.3314C178.613 20.0493 178.663 19.7647 178.787 19.5095C178.911 19.2543 179.103 19.0387 179.343 18.887C179.583 18.7353 179.86 18.6535 180.143 18.6509C180.593 18.7135 180.999 18.9493 181.277 19.308C181.554 19.6666 181.681 20.1196 181.628 20.57Z" fill="#455A64"/>
  <path d="M146.696 19.9989L146.307 20.1359L145.432 20.4558L142.385 19.1535C139.453 17.8893 135.981 16.4119 135.318 16.191H135.402H135.478H135.577H135.638L135.866 16.2672L136.103 16.3434L136.773 16.5642L136.994 16.6404L137.207 16.7089H137.329L137.687 16.8308L137.93 16.9145L141.06 18.0721L141.357 18.1711L142.515 18.5595L144.518 19.2373L144.8 19.3363L145.668 19.6257L145.889 19.6942H145.988H146.041L146.696 19.9989Z" fill="#C53F3F"/>
  <path opacity="0.5" d="M146.696 19.9989L146.307 20.1359L145.432 20.4558L142.385 19.1535C139.453 17.8893 135.981 16.4119 135.318 16.191H135.402H135.478H135.577H135.638L135.866 16.2672L136.103 16.3434L136.773 16.5642L136.994 16.6404L137.207 16.7089H137.329L137.687 16.8308L137.93 16.9145L141.06 18.0721L141.357 18.1711L142.515 18.5595L144.518 19.2373L144.8 19.3363L145.668 19.6257L145.889 19.6942H145.988H146.041L146.696 19.9989Z" fill="white"/>
  <path d="M145.432 20.4558L143.101 21.3087C143.101 21.3087 137.869 18.8793 134.724 17.3638H134.678L133.78 16.9221C133.324 16.7294 132.89 16.4895 132.485 16.2063C133.408 16.0052 134.364 16.0052 135.288 16.2063H135.341C135.981 16.4195 139.248 17.8132 142.111 19.0393H142.172L142.408 19.1383L145.432 20.4558Z" fill="#C53F3F"/>
  <g opacity="0.1">
    <path opacity="0.1" d="M145.432 20.4558L143.101 21.3087C143.101 21.3087 137.869 18.8794 134.724 17.3638C135.242 17.5771 140.535 19.9151 141.845 19.5876C141.966 19.5654 142.079 19.5144 142.176 19.4388C142.273 19.3632 142.35 19.2653 142.401 19.1535L145.432 20.4558Z" fill="black"/>
  </g>
  <path d="M151.478 17.1202L145.797 19.8542C145.797 19.8542 145.85 14.9802 145.896 11.477C145.896 11.3551 145.896 11.2409 145.896 11.1191V10.8373C145.896 9.63401 145.896 8.66683 145.896 8.23274C145.896 6.82385 146.064 6.53446 146.437 6.76293C147.356 7.43889 148.205 8.20418 148.973 9.04761C149.384 9.5807 150.29 12.7793 150.877 14.9802C150.88 14.9978 150.88 15.0159 150.877 15.0335C150.915 15.1629 150.945 15.2848 150.976 15.4066C151.28 16.4195 151.478 17.1202 151.478 17.1202Z" fill="#C53F3F"/>
  <g opacity="0.1">
    <path opacity="0.1" d="M151.478 17.1202L145.797 19.8542C145.797 19.8542 145.85 14.9802 145.896 11.477C146.734 13.3428 148.386 15.894 151.037 15.4371C151.28 16.4195 151.478 17.1202 151.478 17.1202Z" fill="black"/>
  </g>
  <path d="M141.799 22.8319C141.213 21.3697 143.703 20.0369 146.521 18.7727C149.338 17.5085 177.143 5.24741 181.179 4.15077C185.216 3.05412 189.907 4.55439 190.699 6.86192C191.887 10.3118 186.891 13.2057 168.865 20.6766C166.504 21.6514 155.918 24.1874 150.009 24.2027C143.657 24.2255 142.088 23.5553 141.799 22.8319Z" fill="#C53F3F"/>
  <path opacity="0.5" d="M141.799 22.8319C141.213 21.3697 143.703 20.0369 146.521 18.7727C149.338 17.5085 177.143 5.24741 181.179 4.15077C185.216 3.05412 189.907 4.55439 190.699 6.86192C191.887 10.3118 186.891 13.2057 168.865 20.6766C166.504 21.6514 155.918 24.1874 150.009 24.2027C143.657 24.2255 142.088 23.5553 141.799 22.8319Z" fill="white"/>
  <path opacity="0.1" d="M168.857 20.6766C166.496 21.6514 155.911 24.1874 150.001 24.2027C143.657 24.2027 142.088 23.5553 141.799 22.8318C141.51 22.1084 142.027 21.3087 143.01 20.6386C143.002 20.7847 143.028 20.9305 143.086 21.065C143.352 21.72 144.769 22.3368 150.526 22.314C155.918 22.314 163.663 17.935 165.803 17.044C182.146 10.2737 188.528 9.71015 187.447 6.57252C186.975 5.20933 184.995 4.15837 182.657 3.86898C186.282 3.43489 189.99 4.83616 190.691 6.86191C191.879 10.3118 186.868 13.2057 168.857 20.6766Z" fill="black"/>
  <path d="M150.618 18.0036L151.25 17.7294V18.6661L150.618 18.9479V18.0036Z" fill="#455A64"/>
  <path d="M151.783 17.5009L152.461 17.2115V18.1483L151.783 18.4453V17.5009Z" fill="#455A64"/>
  <path d="M152.986 16.9755L153.672 16.6861V17.6228L152.986 17.9198V16.9755Z" fill="#455A64"/>
  <path d="M154.197 16.4576L154.883 16.1606V17.0973L154.197 17.3943V16.4576Z" fill="#455A64"/>
  <path d="M155.408 15.9321L156.086 15.6351V16.5794L155.408 16.8688V15.9321Z" fill="#455A64"/>
  <path d="M156.619 15.4066L157.297 15.1172V16.054L156.619 16.351V15.4066Z" fill="#455A64"/>
  <path d="M157.822 14.8888L158.508 14.5918V15.5285L157.822 15.8255V14.8888Z" fill="#455A64"/>
  <path d="M159.033 14.3633L159.711 14.0663V15.0106L159.033 15.3V14.3633Z" fill="#455A64"/>
  <path d="M160.244 13.8378L160.922 13.5408V14.4851L160.244 14.7822V13.8378Z" fill="#455A64"/>
  <path d="M161.447 13.3199L162.133 13.0229V13.9597L161.447 14.2567V13.3199Z" fill="#455A64"/>
  <path d="M162.658 12.7945L163.343 12.4975V13.4342L162.658 13.7312V12.7945Z" fill="#455A64"/>
  <path d="M163.869 12.269L164.547 11.972V12.9163L163.869 13.2133V12.269Z" fill="#455A64"/>
  <path d="M165.08 11.7435L165.758 11.4541V12.3909L165.08 12.6879V11.7435Z" fill="#455A64"/>
  <path d="M166.283 11.2257L166.969 10.9286V11.8654L166.283 12.1624V11.2257Z" fill="#455A64"/>
  <path d="M167.494 10.7002L168.179 10.4032V11.3475L167.494 11.6369V10.7002Z" fill="#455A64"/>
  <path d="M168.705 10.1747L169.383 9.87771V10.822L168.705 11.1191V10.1747Z" fill="#455A64"/>
  <path d="M169.908 9.65685L170.594 9.35984V10.2966L169.908 10.5936V9.65685Z" fill="#455A64"/>
  <path d="M171.119 9.13138L171.804 8.83437V9.77109L171.119 10.0681V9.13138Z" fill="#455A64"/>
  <path d="M172.33 8.60589L173.015 8.30888V9.25322L172.33 9.55023V8.60589Z" fill="#455A64"/>
  <path d="M173.541 8.08042L174.219 7.79103V8.72775L173.541 9.02476V8.08042Z" fill="#455A64"/>
  <path d="M174.752 7.56255L175.43 7.26554V8.20226L174.752 8.49927V7.56255Z" fill="#455A64"/>
  <path d="M176.64 6.74008V7.68441L175.955 7.97381V7.03709L176.64 6.74008Z" fill="#455A64"/>
  <path d="M177.851 6.22221V7.15893L177.166 7.45594V6.5116L177.851 6.22221Z" fill="#455A64"/>
  <path d="M179.054 5.69674V6.63346L178.377 6.93047V5.99375L179.054 5.69674Z" fill="#455A64"/>
  <path d="M180.265 5.17125V6.11558L179.58 6.40498V5.46826L180.265 5.17125Z" fill="#455A64"/>
  <path d="M183.464 4.79048C183.839 4.50527 184.27 4.30281 184.728 4.19646V4.82094L183.464 4.79048Z" fill="#455A64"/>
  <path d="M186.175 4.05177V4.91234C185.855 4.91234 185.543 4.86664 185.223 4.85141V4.08985C185.539 4.04663 185.857 4.03388 186.175 4.05177Z" fill="#455A64"/>
  <path d="M189.214 5.27026C188.947 5.27026 188.704 5.21695 188.452 5.18649C188.201 5.15603 187.965 5.11033 187.729 5.08749C187.378 5.03418 187.036 4.9961 186.693 4.96564V4.10507C187.11 4.15926 187.517 4.26941 187.904 4.43254C188.146 4.52889 188.378 4.64878 188.597 4.79048C188.708 4.85709 188.815 4.93086 188.917 5.01133C189.023 5.12556 189.122 5.17887 189.214 5.27026Z" fill="#455A64"/>
  <path d="M167.471 12.9239L159.482 16.7774C159.482 16.7774 146.749 9.92339 137.61 4.96563C132.729 2.30017 129.005 0.228725 129.066 0.152569C129.218 -0.0530521 131.67 -0.0302051 132.645 0.0992603C132.738 0.108148 132.83 0.126001 132.919 0.152569C133.33 0.266803 147.739 5.60534 157.83 9.34461L167.471 12.9239Z" fill="#C53F3F"/>
  <g opacity="0.1">
    <path opacity="0.1" d="M167.471 12.924L159.483 16.7774C159.483 16.7774 146.749 9.9234 137.61 4.96564C138.326 5.32357 154.708 13.5789 156.848 12.3375C157.655 11.873 157.868 10.6621 157.807 9.32938L167.471 12.924Z" fill="black"/>
  </g>
  <path d="M168.667 12.3909L166.283 13.5408C160.191 10.9896 134.876 0.975064 132.774 0.137348C132.752 0.134119 132.729 0.134119 132.706 0.137348H132.653C132.745 0.146235 132.837 0.164088 132.927 0.190657C133.536 0.312506 168.667 12.3909 168.667 12.3909Z" fill="#C53F3F"/>
  <path opacity="0.5" d="M168.667 12.3909L166.283 13.5408C160.191 10.9896 134.876 0.975064 132.774 0.137348C132.752 0.134119 132.729 0.134119 132.706 0.137348H132.653C132.745 0.146235 132.837 0.164088 132.927 0.190657C133.536 0.312506 168.667 12.3909 168.667 12.3909Z" fill="white"/>
  <path d="M151.478 12.5812C150.717 12.962 149.849 13.259 149.788 12.467C149.788 12.1472 150.009 11.8045 151.273 11.1952C151.562 11.0505 152.286 10.7383 152.499 11.3932C152.712 12.0481 151.798 12.4365 151.478 12.5812Z" fill="#C53F3F"/>
  <path opacity="0.1" d="M151.478 12.5812C150.717 12.962 149.849 13.259 149.788 12.467C149.788 12.1472 150.009 11.8045 151.273 11.1952C151.562 11.0505 152.286 10.7383 152.499 11.3932C152.712 12.0481 151.798 12.4365 151.478 12.5812Z" fill="black"/>
  <path d="M144.723 9.15422C143.962 9.535 143.086 9.83201 143.025 9.0476C143.025 8.72013 143.254 8.37743 144.51 7.76818C144.807 7.6311 145.531 7.31124 145.744 7.96618C145.957 8.62112 145.02 9.00952 144.723 9.15422Z" fill="#C53F3F"/>
  <path opacity="0.1" d="M144.723 9.15422C143.962 9.535 143.086 9.83201 143.025 9.0476C143.025 8.72013 143.254 8.37743 144.51 7.76818C144.807 7.6311 145.531 7.31124 145.744 7.96618C145.957 8.62112 145.02 9.00952 144.723 9.15422Z" fill="black"/>
  <path d="M137.923 5.68911C137.161 6.03943 136.4 6.3212 136.339 5.5901C136.339 5.28548 136.552 4.96562 137.725 4.40207C137.999 4.26499 138.677 3.9756 138.875 4.58484C139.073 5.19409 138.197 5.55203 137.923 5.68911Z" fill="#C53F3F"/>
  <path opacity="0.1" d="M137.923 5.68911C137.161 6.03943 136.4 6.3212 136.339 5.5901C136.339 5.28548 136.552 4.96562 137.725 4.40207C137.999 4.26499 138.677 3.9756 138.875 4.58484C139.073 5.19409 138.197 5.55203 137.923 5.68911Z" fill="black"/>
  <path d="M161.622 11.8044C161.006 12.9011 159.604 13.3276 158.721 13.6474C156.368 14.5918 154.662 15.1172 153.816 12.9772C153.717 12.7341 153.656 12.4773 153.634 12.2157C153.497 10.6012 155.157 9.80154 156.01 9.35222C157.03 8.81151 157.754 8.46119 158.294 8.24034C158.817 7.98121 159.387 7.83339 159.97 7.80625C160.45 7.80625 161.493 7.91287 161.874 9.87769C162.02 10.5295 161.931 11.2121 161.622 11.8044Z" fill="#C53F3F"/>
  <path d="M159.97 12.4442C160.895 12.4442 161.645 11.4724 161.645 10.2737C161.645 9.075 160.895 8.10326 159.97 8.10326C159.044 8.10326 158.294 9.075 158.294 10.2737C158.294 11.4724 159.044 12.4442 159.97 12.4442Z" fill="#263238"/>
  <path d="M161.455 10.2737C161.381 10.5475 161.232 10.7954 161.025 10.9892C160.818 11.1831 160.561 11.3153 160.283 11.3711C160.005 11.4268 159.717 11.4038 159.451 11.3046C159.186 11.2054 158.953 11.034 158.779 10.8098C158.606 10.5855 158.498 10.3172 158.469 10.0351C158.44 9.75303 158.49 9.46837 158.614 9.21318C158.737 8.95799 158.93 8.74241 159.169 8.59072C159.409 8.43902 159.686 8.35724 159.97 8.35457C160.418 8.41903 160.824 8.65534 161.101 9.01351C161.378 9.37167 161.505 9.82361 161.455 10.2737Z" fill="#455A64"/>
  <path d="M136.125 16.4424L135.889 16.3662L136.125 16.4424Z" fill="#C53F3F"/>
  <path d="M302.732 130.656L294.659 135.956L274.577 135.758L278.095 124.076L298.315 123.817L302.732 130.656Z" fill="#455A64"/>
  <path d="M298.315 123.817L296.601 122.964L276.961 123.17L273.496 135.431L274.577 135.758L278.095 124.076L298.315 123.817Z" fill="#37474F"/>
  <path d="M310.484 158.499L302.595 162.162L269.825 150.479L273.922 138.987L306.692 150.67L310.484 158.499Z" fill="#C53F3F"/>
  <path d="M306.692 150.67L308.04 152.14L311.642 159.412L302.846 163.449L269.756 151.561L269.825 150.479L302.595 162.162L310.485 158.499L306.692 150.67Z" fill="#C53F3F"/>
  <path opacity="0.1" d="M306.692 150.67L308.04 152.14L311.642 159.412L302.846 163.449L269.756 151.561L269.825 150.479L302.595 162.162L310.485 158.499L306.692 150.67Z" fill="black"/>
  <path d="M232.76 126.551L237.527 133.824L271.538 141.173L274.105 129.247L240.101 121.89L232.76 126.551Z" fill="#263238"/>
  <path d="M232.76 126.551L237.527 133.824L271.538 141.173L270.799 143.145L237.527 135.918L232.881 128.996L232.76 126.551Z" fill="#37474F"/>
  <path d="M233.506 282.778L224.367 280.036L277.227 112.363C277.897 110.238 279.443 108.852 280.715 109.233L280.921 109.294C282.193 109.683 282.71 111.693 282.094 113.825L233.506 282.778Z" fill="#C53F3F"/>
  <path opacity="0.4" d="M233.506 282.778L224.367 280.036L277.227 112.363C277.897 110.238 279.443 108.852 280.715 109.233L280.921 109.294C282.193 109.683 282.71 111.693 282.094 113.825L233.506 282.778Z" fill="black"/>
  <g style="mix-blend-mode:multiply" opacity="0.3">
    <g style="mix-blend-mode:multiply" opacity="0.3">
      <path d="M278.05 115.493C276.019 121.616 274.021 127.749 272.056 133.893C270.076 140.031 268.119 146.177 266.238 152.345C264.357 158.514 262.521 164.698 260.808 170.92L259.551 175.588L258.378 180.279C257.655 183.409 257.015 186.577 256.185 189.707C254.517 195.952 252.377 202.045 250.161 208.107L243.444 226.255C238.902 238.331 235.192 250.705 232.341 263.289C233.651 256.968 235.257 250.716 237.093 244.532C238.928 238.348 241.023 232.24 243.185 226.171L249.849 208C252.035 201.908 254.159 195.815 255.804 189.608C256.612 186.501 257.267 183.341 258.005 180.195L259.201 175.504L260.465 170.828C262.209 164.614 264.06 158.438 265.971 152.269C269.794 139.947 273.82 127.688 278.05 115.493Z" fill="black"/>
    </g>
    <g style="mix-blend-mode:multiply" opacity="0.3">
      <path d="M279.489 112.043L277.699 119.552L275.788 127.038C274.493 132.019 273.168 136.992 271.774 141.95C270.381 146.908 268.88 151.85 267.304 156.739C265.727 161.629 264.082 166.518 262.125 171.285L263.45 167.66L264.692 164.005C265.507 161.568 266.314 159.123 267.06 156.663C268.583 151.751 270.023 146.801 271.409 141.851C272.795 136.901 274.211 131.951 275.544 126.97L279.489 112.043Z" fill="black"/>
    </g>
    <g style="mix-blend-mode:multiply" opacity="0.3">
      <path d="M238.098 245.431C239.149 243.146 240.162 240.816 241.144 238.493C242.127 236.17 243.147 233.847 244.122 231.509C246.064 226.841 247.93 222.135 249.636 217.382C251.342 212.63 253.063 207.863 254.464 203.012C254.83 201.801 255.18 200.582 255.477 199.356C255.774 198.13 256.132 196.912 256.375 195.67C256.619 194.429 256.916 193.203 257.137 191.961L257.701 188.215C257.156 193.252 256.149 198.228 254.692 203.08C253.329 207.954 251.707 212.76 249.978 217.512C248.25 222.264 246.323 226.955 244.335 231.608C242.348 236.261 240.322 240.884 238.098 245.431Z" fill="black"/>
    </g>
    <g style="mix-blend-mode:multiply" opacity="0.3">
      <path d="M266.238 163.86C265.121 166.632 264.029 169.424 262.963 172.237C261.904 175.032 260.869 177.842 259.985 180.69C259.528 182.105 259.184 183.554 258.957 185.024C258.908 185.375 258.908 185.731 258.957 186.082C258.965 186.136 258.989 186.187 259.026 186.227C259.026 186.227 259.026 186.227 259.102 186.227C259.233 186.128 259.348 186.01 259.445 185.877C259.863 185.27 260.223 184.625 260.518 183.95C261.121 182.587 261.615 181.179 261.996 179.738C262.402 178.297 262.672 176.821 262.803 175.329C262.638 178.336 261.952 181.291 260.777 184.064C260.496 184.771 260.139 185.445 259.711 186.075C259.589 186.243 259.44 186.39 259.269 186.509C259.204 186.553 259.127 186.576 259.049 186.576C258.97 186.576 258.893 186.553 258.828 186.509C258.725 186.42 258.655 186.299 258.63 186.166C258.576 185.777 258.576 185.382 258.63 184.993C258.847 183.501 259.186 182.029 259.643 180.591C260.549 177.728 261.592 174.918 262.689 172.138C263.785 169.358 264.989 166.579 266.238 163.86Z" fill="black"/>
    </g>
    <g style="mix-blend-mode:multiply" opacity="0.3">
      <path d="M248.242 225.82C246.056 231.456 243.825 237.069 241.434 242.575C240.84 243.961 240.238 245.347 239.606 246.725C238.974 248.104 238.273 249.436 237.656 250.807C236.415 253.549 235.396 256.386 234.61 259.291C234.211 260.737 233.923 262.211 233.75 263.701C233.659 264.431 233.687 265.172 233.833 265.894C233.889 266.224 234.069 266.521 234.336 266.724C234.496 266.808 234.564 266.823 234.701 266.724C234.843 266.633 234.967 266.516 235.067 266.381C235.891 265.134 236.544 263.781 237.009 262.36C237.527 260.951 237.976 259.512 238.372 258.057C238.78 256.608 239.098 255.136 239.324 253.648C239.379 253.279 239.414 252.908 239.431 252.536C239.473 252.184 239.423 251.827 239.286 251.5C239.218 251.394 239.065 251.409 238.928 251.5C238.786 251.609 238.662 251.74 238.563 251.889C238.345 252.191 238.153 252.512 237.991 252.848C237.35 254.209 236.823 255.62 236.415 257.067C236.202 257.791 236.011 258.522 235.859 259.261C235.783 259.634 235.722 260.022 235.676 260.38C235.6 260.749 235.6 261.13 235.676 261.5C235.579 261.132 235.56 260.748 235.623 260.373C235.664 259.997 235.717 259.624 235.783 259.253C235.92 258.491 236.095 257.776 236.286 257.044C236.669 255.577 237.179 254.145 237.809 252.764C237.974 252.418 238.165 252.085 238.38 251.767C238.494 251.602 238.633 251.456 238.791 251.333C238.882 251.263 238.99 251.221 239.103 251.211C239.167 251.206 239.232 251.217 239.29 251.244C239.349 251.271 239.4 251.312 239.438 251.363C239.61 251.729 239.679 252.134 239.636 252.536C239.636 252.917 239.583 253.298 239.537 253.671C239.317 255.199 239.004 256.712 238.601 258.202C238.212 259.664 237.771 261.111 237.26 262.543C237.009 263.251 236.735 263.959 236.423 264.652C236.132 265.366 235.756 266.041 235.303 266.663C235.179 266.833 235.024 266.978 234.846 267.089C234.736 267.156 234.609 267.19 234.481 267.188C234.362 267.169 234.249 267.128 234.146 267.067C233.793 266.823 233.55 266.451 233.468 266.031C233.312 265.28 233.279 264.508 233.369 263.746C233.519 262.232 233.81 260.736 234.237 259.276C235.053 256.356 236.108 253.509 237.39 250.762C238.022 249.383 238.745 248.058 239.362 246.687C239.979 245.316 240.611 243.938 241.22 242.56C243.612 236.99 245.952 231.41 248.242 225.82Z" fill="black"/>
    </g>
    <g style="mix-blend-mode:multiply" opacity="0.3">
      <path d="M226.873 280.775C227.314 278.653 227.779 276.53 228.266 274.408L229.751 268.064L231.328 261.743C231.861 259.634 232.424 257.54 233.003 255.445C232.562 257.578 232.097 259.695 231.61 261.812L230.125 268.156L228.548 274.477C227.992 276.579 227.429 278.68 226.873 280.775Z" fill="black"/>
    </g>
    <g style="mix-blend-mode:multiply" opacity="0.3">
      <path d="M229.249 281.498C230.128 279.946 230.775 278.273 231.168 276.533C231.579 274.808 231.677 273.023 231.457 271.263C231.228 269.47 231.228 267.656 231.457 265.863C231.65 264.071 231.947 262.291 232.348 260.532C232.036 262.299 231.838 264.081 231.686 265.863C231.521 267.639 231.559 269.427 231.8 271.194C232.068 272.996 231.967 274.833 231.503 276.594C231.057 278.352 230.293 280.014 229.249 281.498Z" fill="black"/>
    </g>
    <g style="mix-blend-mode:multiply" opacity="0.3">
      <path d="M246.521 231.547C245.028 235.706 243.713 239.92 242.576 244.189C242.012 246.322 241.51 248.477 241.16 250.647C240.809 252.818 240.497 255.026 240.048 257.189C239.598 259.352 239.111 261.515 238.471 263.64C237.882 265.783 237.062 267.856 236.027 269.824C234.883 271.709 233.902 273.689 233.095 275.741C232.264 277.785 231.542 279.872 230.932 281.993C231.94 277.676 233.558 273.525 235.737 269.664C236.749 267.712 237.546 265.657 238.113 263.533C238.723 261.416 239.253 259.278 239.705 257.121C240.162 254.958 240.527 252.787 240.87 250.602C241.213 248.416 241.776 246.268 242.393 244.136C243.536 239.879 244.96 235.69 246.521 231.547Z" fill="black"/>
    </g>
    <g style="mix-blend-mode:multiply" opacity="0.3">
      <path d="M281.431 109.568C280.883 112.178 280.301 114.782 279.687 117.382C279.085 119.986 278.43 122.568 277.783 125.157C277.136 127.747 276.42 130.321 275.673 132.887C274.927 135.454 274.15 138.005 273.176 140.503C273.594 139.231 273.975 137.959 274.333 136.695C274.691 135.431 275.049 134.129 275.392 132.834C276.077 130.26 276.762 127.678 277.41 125.096L279.42 117.313L281.431 109.568Z" fill="black"/>
    </g>
  </g>
  <path d="M316.524 349.589H12.3259C15.5746 343.101 19.2747 336.848 23.399 330.878C24.7241 328.949 26.0949 327.05 27.5115 325.181C27.976 324.565 28.4558 323.932 28.9356 323.323C29.8951 322.089 30.8776 320.871 31.8676 319.668C32.8576 318.464 33.8857 317.276 34.9138 316.096L36.4369 314.352C37.4803 313.187 38.5541 312.067 39.6355 310.91C40.7169 309.752 41.8212 308.625 42.9407 307.559C43.489 307.003 44.0602 306.462 44.6313 305.914C50.9029 299.901 57.6353 294.388 64.767 289.426C67.3766 287.598 70.0472 285.844 72.7786 284.164C73.6849 283.6 74.5988 283.052 75.5279 282.503C77.3708 281.414 79.2367 280.364 81.1253 279.335L83.41 278.109L84.6971 277.454C85.1311 277.233 85.5652 277.005 86.0069 276.792L86.7457 276.48L87.096 276.312L89.236 275.276C90.1498 274.842 91.0637 274.408 91.9928 273.997C92.7544 273.654 93.5159 273.327 94.2242 273.007C94.9324 272.687 95.7473 272.36 96.4632 272.055L96.8592 271.887L98.725 271.126C99.7226 270.73 100.743 270.326 101.771 269.938L103.294 269.359C106.848 268.034 110.489 266.823 114.215 265.726L115.609 265.33C115.631 265.337 115.655 265.337 115.677 265.33L116.089 265.216C116.835 265.003 117.581 264.797 118.328 264.599L119.127 264.394C119.889 264.18 120.65 263.982 121.45 263.792C122.432 263.548 123.415 263.305 124.39 263.084C125.364 262.863 126.194 262.665 127.116 262.467L127.581 262.375L129.104 262.063L129.271 262.025L129.583 261.964L130.2 261.842H130.269L130.962 261.713H131.053L132.378 261.462H132.439C132.851 261.378 133.262 261.309 133.681 261.233L137.001 260.685H137.07C138.105 260.532 139.141 260.38 140.177 260.243C140.391 260.203 140.607 260.175 140.824 260.159C141.738 260.022 142.667 259.916 143.581 259.809L143.916 259.771C144.784 259.664 145.637 259.581 146.513 259.497C147.038 259.428 147.579 259.375 148.112 259.337C148.478 259.299 148.874 259.261 149.224 259.245C150.047 259.162 150.869 259.101 151.707 259.047H152.004C152.765 258.979 153.58 258.926 154.372 258.887C155.4 258.834 156.413 258.781 157.418 258.75C158.233 258.712 159.048 258.682 159.863 258.674C160.312 258.674 160.762 258.674 161.211 258.674C162.27 258.674 163.328 258.674 164.387 258.674C169.012 258.674 173.581 258.844 178.095 259.185L180.608 259.398L181.834 259.52L183.098 259.641C184.276 259.768 185.449 259.905 186.617 260.053C187.927 260.213 189.229 260.395 190.531 260.586L192.983 260.959C195.436 261.363 197.865 261.804 200.272 262.299C201.878 262.634 203.47 262.985 205.062 263.358C207.443 263.921 209.804 264.531 212.144 265.186C213.667 265.62 215.267 266.084 216.805 266.564C228.979 270.333 240.698 275.441 251.745 281.795C263.519 288.578 274.427 296.761 284.234 306.165C285.107 307.018 285.978 307.876 286.846 308.739C288.574 310.476 290.25 312.25 291.895 314.07C293.54 315.89 295.139 317.718 296.693 319.591C304.422 328.87 311.065 339.001 316.493 349.787L316.524 349.589Z" fill="#455A64"/>
  <g opacity="0.2">
    <path opacity="0.8" d="M194.956 272.672C193.692 274.911 191.658 275.352 189.297 275.512C186.937 275.672 184.728 274.469 182.23 275.954C179.732 277.439 177.196 285.481 173.891 285.931C170.586 286.38 164.752 278.787 163.519 276.548C162.285 274.309 166.352 269.542 164.425 267.318C162.498 265.094 159.094 265.521 153.763 265.079C153.428 265.079 153.07 265.033 152.689 265.026C146.924 264.873 136.034 266.686 136.468 268.514C136.59 269.031 137.991 269.275 139.971 269.367C145.302 269.679 154.829 269.26 155.202 272.078C155.667 275.954 142.149 282.503 139.804 281.909C137.458 281.315 134.29 277.447 130.84 276.997C127.39 276.548 124.542 279.229 122.371 279.526C121.457 279.565 120.548 279.371 119.729 278.962C118.168 278.361 116.401 277.515 114.337 277.888C111.039 278.475 110.247 281.163 108.519 282.206C106.79 283.25 102.7 283.25 102.236 285.626C102.007 286.822 103.287 287.751 104.81 288.566C106.333 289.38 108.123 290.089 108.831 290.85C110.247 292.373 107.102 297.407 108.519 298.466C109.935 299.524 118.739 292.198 120.932 290.416C123.125 288.634 125.022 280.881 129.736 281.026C134.45 281.171 136.019 288.779 137.595 289.517C139.172 290.256 142.629 287.735 147.808 288.756C152.986 289.776 156.604 300.545 157.571 303.812C158.538 307.079 160.716 310.377 158.835 311.717C156.954 313.057 148.455 310.818 147.366 308.739C146.277 306.66 153.017 303.523 152.545 302.784C152.072 302.045 148.143 300.987 146.109 302.152C144.076 303.317 143.124 305.746 140.915 306.348C138.707 306.95 132.896 300.69 131.335 302.472C129.774 304.254 132.858 309.927 134.473 311.268C136.087 312.608 141.86 313.354 142.324 314.839C142.789 316.324 138.402 319.599 133.056 319.31C127.71 319.02 123.316 315.136 121.267 316.774C119.219 318.411 120.33 322.729 118.914 324.222C117.497 325.714 109.775 324.671 106.028 328.532C102.282 332.393 100.522 338.212 96.7526 341.479C92.9828 344.746 91.2617 340.588 86.2278 345.203C84.9363 346.447 83.9013 347.932 83.1816 349.574H28.7376C28.7376 349.361 28.7376 349.148 28.6767 348.934C27.7476 339.994 31.0375 330.611 37.6402 323.041C37.6402 323.041 38.5846 318.122 39.5213 314.999C40.458 311.877 60.7384 299.357 63.1297 295.785C64.1121 294.262 64.4472 291.977 64.7975 289.434C67.4071 287.606 70.0776 285.852 72.8091 284.171C73.7154 283.608 74.6292 283.059 75.5583 282.511C77.4013 281.422 79.2671 280.371 81.1558 279.343L83.4405 278.117L84.7275 277.462C85.1616 277.241 85.5957 277.013 86.0374 276.799L86.7457 276.48L87.096 276.312C87.8042 275.954 88.5201 275.611 89.236 275.276L89.7919 274.956C91.2541 274.263 92.7392 273.601 94.2318 272.954L96.4708 271.994L96.8668 271.826L98.7326 271.065C99.7303 270.669 100.751 270.265 101.779 269.877L103.302 269.298C106.856 267.973 110.496 266.762 114.223 265.665L115.616 265.269C115.639 265.276 115.663 265.276 115.685 265.269L116.096 265.155C116.843 264.942 117.589 264.736 118.335 264.538L119.135 264.333C119.896 264.119 120.658 263.921 121.458 263.731C122.44 263.487 123.422 263.244 124.397 263.023C125.372 262.802 126.202 262.604 127.124 262.406L127.588 262.315L129.111 262.002L129.279 261.964L130.208 261.781H130.276L130.969 261.652H131.061L132.386 261.401H132.439C132.851 261.317 133.262 261.248 133.681 261.172L137.001 260.624H137.07C138.105 260.472 139.141 260.319 140.177 260.182C140.391 260.143 140.607 260.115 140.824 260.098C141.738 259.961 142.667 259.855 143.581 259.748L143.916 259.71C144.784 259.603 145.637 259.52 146.513 259.436C147.038 259.367 147.579 259.314 148.112 259.276C148.478 259.238 148.874 259.2 149.224 259.185C150.047 259.101 150.869 259.04 151.707 258.986H152.004C152.765 258.918 153.58 258.865 154.372 258.827C155.4 258.773 156.413 258.72 157.419 258.69C158.233 258.651 159.048 258.621 159.863 258.613C160.312 258.613 160.762 258.613 161.211 258.613C162.27 258.613 163.328 258.613 164.387 258.613C169.012 258.613 173.581 258.783 178.095 259.124C178.255 259.337 178.415 259.527 178.567 259.718C178.586 259.753 178.612 259.784 178.643 259.809C179.5 260.867 180.509 261.794 181.636 262.558C183.868 263.95 186.269 265.05 188.78 265.833C194.804 267.775 196.22 270.456 194.956 272.672Z" fill="black"/>
    <path opacity="0.2" d="M199.045 273.883C198.223 275.756 202.031 276.419 204.232 277.607C206.432 278.795 208.154 279.541 209.418 277.607C210.682 275.672 208.946 273.433 207.217 272.992C205.488 272.55 199.83 272.093 199.045 273.883Z" fill="black"/>
    <path opacity="0.2" d="M228.746 291.307C230.193 292.754 232.676 292.495 234.405 294.582C236.133 296.669 235.501 300.24 237.702 301.284C239.903 302.327 241.472 301.284 241.632 299.799C241.792 298.314 238.487 294.582 238.806 293.836C239.126 293.089 243.376 294.879 244.305 297.118C245.234 299.357 243.361 302.449 245.562 303.073C247.762 303.698 247.29 300.987 248.235 300.393C249.179 299.799 251.22 300.096 251.06 298.306C250.9 296.516 248.387 292.648 246.346 291.307C244.305 289.967 242.736 288.474 239.279 287.735C235.821 286.997 232.516 287.583 230.787 288.923C229.058 290.264 227.848 290.416 228.746 291.307Z" fill="black"/>
    <path opacity="0.2" d="M296.738 319.371C296.639 319.982 296.326 320.538 295.855 320.939C292.55 323.178 288.62 315.433 284.066 313.948C279.512 312.463 277.463 306.942 276.527 308.138C275.59 309.333 275.894 310.963 274.478 312.897C273.061 314.832 271.02 314.421 270.076 318.114C269.132 321.808 274.478 328.685 273.221 330.924C271.965 333.163 270.396 332.409 267.89 332.264C265.385 332.119 265.849 334.198 262.56 333.3C259.27 332.401 262.087 328.54 256.901 323.925C251.715 319.31 249.986 318.411 251.09 316.309C252.195 314.207 250.618 311.252 252.971 310.978C255.325 310.704 257.213 313.964 258.782 314.855C260.351 315.746 262.4 313.065 262.59 310.681C262.78 308.298 257.084 305.023 255.043 303.172C253.002 301.322 252.842 294.597 253.626 293.272C254.411 291.947 256.772 292.381 257.434 289.106C257.8 287.179 254.586 283.958 251.867 281.635C268.938 291.461 284.131 304.238 296.738 319.371Z" fill="black"/>
    <path opacity="0.2" d="M316.524 349.589H268.264C267.007 347.16 265.164 344.129 265.05 341.814C264.89 338.844 268.027 338.973 274.006 334.8C279.984 330.626 281.545 330.931 286.107 332.416C289.389 333.572 292.755 334.475 296.175 335.12C298.787 335.554 302.313 341.875 303.486 341.837C303.486 341.837 303.539 341.837 303.554 341.837C304.651 341.532 304.818 339.598 305.283 336.772C305.593 335.531 306.276 334.415 307.24 333.574C310.651 338.722 313.751 344.071 316.524 349.589Z" fill="black"/>
  </g>
  <path opacity="0.1" d="M181.88 259.322C180.806 259.421 179.747 259.551 178.689 259.673C175.521 260.061 172.398 260.533 169.299 261.104C163.702 262.12 158.165 263.44 152.712 265.057C148.394 266.329 144.144 267.776 139.994 269.398C133.021 272.113 126.249 275.32 119.729 278.993C115.434 281.425 111.278 284.04 107.262 286.838C106.432 287.416 105.617 288.003 104.81 288.597C83.2367 304.135 66.2561 325.207 55.6587 349.59H12.3259C15.5746 343.102 19.2747 336.849 23.399 330.879C24.7241 328.949 26.0949 327.051 27.5115 325.182C27.976 324.565 28.4558 323.933 28.9356 323.324C29.8951 322.09 30.8776 320.872 31.8676 319.668C32.8576 318.465 33.8857 317.277 34.9138 316.097L36.4369 314.353C37.4803 313.188 38.5541 312.068 39.6355 310.911C40.7169 309.753 41.8212 308.626 42.9407 307.56C43.489 307.004 44.0602 306.463 44.6313 305.915C50.9029 299.902 57.6353 294.389 64.767 289.427C67.3766 287.599 70.0472 285.845 72.7786 284.164C73.6849 283.601 74.5988 283.053 75.5279 282.504C77.3708 281.415 79.2366 280.364 81.1253 279.336L83.41 278.11L84.697 277.455C85.1311 277.234 85.5652 277.006 86.0069 276.793L86.7456 276.48L87.096 276.313L89.236 275.277L89.7919 274.957L92.0004 273.944C93.4778 273.274 94.968 272.627 96.4708 272.002L98.7555 271.073C99.7531 270.677 100.774 270.274 101.802 269.885L103.325 269.306C106.879 267.991 110.519 266.781 114.246 265.674L115.639 265.278C115.662 265.284 115.685 265.284 115.708 265.278L116.119 265.164C116.865 264.95 117.612 264.745 118.358 264.547L119.158 264.341C119.919 264.128 120.681 263.93 121.48 263.739C122.463 263.496 123.445 263.252 124.42 263.031C125.395 262.81 126.225 262.612 127.146 262.414L127.611 262.323L129.134 262.011L129.302 261.973L130.231 261.79H130.299L130.992 261.66H131.084L132.409 261.409H132.439C132.851 261.325 133.262 261.257 133.681 261.181L137.001 260.632H137.07C138.105 260.48 139.141 260.328 140.177 260.191C140.391 260.151 140.607 260.123 140.824 260.107C141.738 259.97 142.667 259.863 143.581 259.756L143.916 259.718C144.784 259.612 145.637 259.528 146.513 259.444C147.038 259.376 147.579 259.322 148.112 259.284C148.478 259.246 148.874 259.208 149.224 259.193C150.047 259.109 150.869 259.048 151.707 258.995H152.004C152.765 258.926 153.58 258.873 154.372 258.835C155.4 258.782 156.413 258.728 157.418 258.698C158.233 258.66 159.048 258.629 159.863 258.622C160.312 258.622 160.762 258.622 161.211 258.622C162.27 258.622 163.328 258.622 164.387 258.622C169.012 258.622 173.581 258.792 178.095 259.132L180.608 259.345L181.88 259.322Z" fill="black"/>
  <path opacity="0.3" d="M316.524 349.589H307.865C306.486 346.954 305.017 344.365 303.486 341.814C302.349 339.895 301.163 338.001 299.929 336.133C296.659 331.193 293.118 326.439 289.321 321.891C285.312 317.068 281.03 312.479 276.496 308.145C270.132 302.059 263.297 296.485 256.056 291.475C252.202 288.794 248.219 286.273 244.107 283.912C224.848 272.839 203.653 265.545 181.659 262.421C177.826 261.873 173.952 261.451 170.038 261.157C169.779 261.157 169.527 261.111 169.276 261.104C164.981 260.784 160.637 260.624 156.246 260.624C142.593 260.615 128.984 262.171 115.685 265.262L116.096 265.148C116.843 264.934 117.589 264.729 118.335 264.531L119.135 264.325C119.896 264.112 120.658 263.914 121.458 263.723C122.44 263.48 123.422 263.236 124.397 263.015C125.372 262.794 126.202 262.596 127.124 262.398L127.588 262.307L129.111 261.995L129.279 261.957L130.208 261.774H130.276L130.969 261.644H131.061L132.386 261.393H132.439C132.851 261.309 133.262 261.241 133.681 261.165L137.001 260.616H137.07C138.105 260.464 139.141 260.312 140.177 260.175C140.391 260.135 140.607 260.107 140.824 260.091C141.738 259.954 142.667 259.847 143.581 259.74L143.916 259.702C144.784 259.596 145.637 259.512 146.513 259.428C147.038 259.36 147.579 259.306 148.112 259.268C148.478 259.23 148.874 259.192 149.224 259.177C150.047 259.093 150.869 259.032 151.707 258.979H152.004C152.765 258.91 153.58 258.857 154.372 258.819C155.4 258.766 156.413 258.712 157.418 258.682C158.233 258.644 159.048 258.613 159.863 258.606C160.312 258.606 160.762 258.606 161.211 258.606C162.27 258.606 163.328 258.606 164.387 258.606C169.012 258.606 173.581 258.776 178.095 259.116L180.608 259.329L181.834 259.451L183.098 259.573C184.276 259.7 185.449 259.837 186.617 259.984C187.927 260.144 189.229 260.327 190.531 260.517L192.983 260.89C195.436 261.294 197.865 261.736 200.271 262.231C201.878 262.573 203.47 262.924 205.062 263.289C207.443 263.853 209.804 264.462 212.144 265.117C213.667 265.551 215.267 266.016 216.805 266.496C228.979 270.265 240.698 275.373 251.745 281.727C263.519 288.509 274.427 296.692 284.234 306.097C285.107 306.95 285.978 307.808 286.846 308.671C288.574 310.407 290.25 312.182 291.895 314.002C293.54 315.822 295.139 317.65 296.693 319.523C304.422 328.801 311.065 338.932 316.493 349.719L316.524 349.589Z" fill="white"/>
  <g opacity="0.5" filter="url(#filter0_f)">
    <path d="M165.5 283.739C202.779 283.739 233 279.992 233 275.37C233 270.747 202.779 267 165.5 267C128.221 267 98 270.747 98 275.37C98 279.992 128.221 283.739 165.5 283.739Z" fill="#263238"/>
  </g>
  <defs>
    <filter id="filter0_f" x="96" y="265" width="139" height="20.7391" filterUnits="userSpaceOnUse" color-interpolation-filters="sRGB">
      <feFlood flood-opacity="0" result="BackgroundImageFix"/>
      <feBlend mode="normal" in="SourceGraphic" in2="BackgroundImageFix" result="shape"/>
      <feGaussianBlur stdDeviation="1" result="effect1_foregroundBlur"/>
    </filter>
  </defs>
</svg>
